<?xml version="1.0" standalone="no"?>
<!DOCTYPE svg PUBLIC "-//W3C//DTD SVG 20010904//EN"
 "http://www.w3.org/TR/2001/REC-SVG-20010904/DTD/svg10.dtd">
<svg version="1.0" xmlns="http://www.w3.org/2000/svg"
 width="700.000000pt" height="700.000000pt" viewBox="0 0 700.000000 700.000000"
 preserveAspectRatio="xMidYMid meet">
<metadata>
Created by potrace 1.14, written by Peter Selinger 2001-2017
</metadata>
<g transform="translate(0.000000,700.000000) scale(0.100000,-0.100000)"
fill="#000000" stroke="none">
<path d="M2625 6783 l0 -218 213 -1 c117 -1 215 -4 219 -7 3 -4 6 -108 7 -232
1 -248 6 -229 -64 -239 -19 -3 -80 -15 -135 -26 -55 -12 -111 -23 -125 -26
-14 -3 -34 -8 -45 -11 -11 -4 -22 -7 -25 -8 -24 -5 -141 -42 -210 -67 -1012
-364 -1754 -1230 -1964 -2288 -8 -41 -17 -93 -20 -115 -4 -22 -8 -56 -11 -75
-12 -77 -15 -109 -21 -217 -8 -142 -7 -133 -6 -164 l2 -26 3063 0 3063 0 -2
31 c-1 17 -5 87 -8 155 -4 68 -9 139 -11 158 -21 148 -25 173 -41 253 -8 41
-20 93 -26 115 -5 22 -12 51 -14 65 -8 45 -76 253 -109 335 -74 179 -87 209
-135 300 -201 384 -473 716 -805 984 -318 256 -705 453 -1100 559 -125 34
-245 60 -319 68 -28 4 -53 8 -55 10 -6 6 -4 454 2 461 4 3 102 6 219 7 l213 1
0 215 0 215 -875 3 -875 2 0 -217z m1130 -1549 c654 -80 1223 -440 1597 -1009
61 -92 142 -241 150 -274 2 -11 -307 -14 -2004 -15 -1105 0 -2008 0 -2008 2 0
20 115 227 181 324 121 180 324 399 464 503 22 17 47 36 55 44 41 40 240 160
365 221 171 83 379 155 510 176 22 3 43 8 46 10 3 1 34 6 70 10 35 4 84 10
109 14 76 12 349 8 465 -6z"/>
<path d="M560 2175 c0 -19 70 -212 115 -315 47 -110 153 -313 199 -383 20 -30
36 -59 36 -65 0 -6 3 -12 8 -14 4 -1 27 -32 51 -68 237 -347 597 -684 956
-895 197 -116 458 -235 625 -284 41 -12 86 -27 100 -31 33 -12 219 -56 295
-69 208 -38 305 -46 555 -46 237 0 316 6 515 41 44 7 91 15 105 18 62 10 238
59 341 94 327 112 590 252 874 465 128 97 315 263 315 280 0 5 -136 146 -302
313 l-302 302 -56 -51 c-192 -177 -504 -367 -748 -456 -81 -30 -239 -77 -282
-85 -14 -2 -63 -11 -108 -20 -149 -28 -360 -37 -537 -22 -49 4 -99 9 -110 11
-11 3 -36 7 -55 9 -69 10 -187 37 -270 62 -573 173 -1052 573 -1342 1120 l-53
102 -463 0 c-385 1 -462 -1 -462 -13z"/>
</g>
</svg>
