<?xml version="1.0" encoding="utf-8"?>
<!-- Generator: Adobe Illustrator 21.0.0, SVG Export Plug-In . SVG Version: 6.00 Build 0)  -->
<svg version="1.1" id="Layer_1" xmlns="http://www.w3.org/2000/svg" xmlns:xlink="http://www.w3.org/1999/xlink" x="0px" y="0px"
	 viewBox="0 0 95 95" style="enable-background:new 0 0 95 95;" xml:space="preserve">
<style type="text/css">
	.st0{fill:#D0F7F7;}
	.st1{fill:#E8F0FD;}
	.st2{fill:#FFFFFF;}
	.st3{fill:#10BDC7;}
</style>
<g>
	<g>
		<g>
			<path class="st0" d="M85.9,48c0,4.9-4.2,8.9-8.7,10.5s-9.5,1.5-14.3,2s-10.4,4.9-13.8,8.4c-2.2,2.3-3.3,5.4-4.9,8.2
				c-1.6,2.8-3.8,5.5-6.9,6.2c-3.4,0.7-6.9-1.5-8.9-4.3c-2-2.9-2.9-6.4-3.9-9.8S23,59.1,20.6,56.5c-2.1-2.2-4.9-3.6-7.6-5
				s-5.5-2.9-7.2-5.4C4,43.7,3.5,40,5.4,37.6c2.4-3,6.8-2.6,10.6-2.9c7.1-0.6,13.7-4.9,17.3-11c1.3-2.3,2.2-4.8,3.7-7.1
				c1.5-2.2,3.6-4.2,6.3-4.5c3.7-0.4,6.8,2.6,9.4,5.3c4.9,5.2,9.6,11.8,16,15.2C74.9,36,85.9,39,85.9,48z"/>
		</g>
		<g>
			<path class="st0" d="M92.2,13.4c0.1,0.4-0.2,0.8-0.5,0.9l-1,0.2l0.2,1c0.1,0.4-0.2,0.8-0.6,0.9s-0.8-0.2-0.9-0.5l-0.2-1l-1,0.2
				c-0.4,0.1-0.8-0.2-0.9-0.6c-0.1-0.4,0.2-0.8,0.5-0.9l1-0.2l-0.2-1c-0.1-0.4,0.2-0.8,0.5-0.9c0.4-0.1,0.8,0.2,0.9,0.5l0.2,1l1-0.2
				C91.8,12.8,92.2,13,92.2,13.4z"/>
		</g>
		<g>
			<path class="st0" d="M12.1,21.5c-0.1,0.4-0.5,0.6-0.9,0.6l-1-0.2l-0.2,1c-0.1,0.4-0.5,0.6-0.9,0.6c-0.4-0.1-0.6-0.5-0.6-0.9
				l0.2-1l-1-0.2c-0.4-0.1-0.6-0.5-0.6-0.9C7.2,20,7.6,19.8,8,19.9l1,0.2l0.2-1c0.1-0.4,0.5-0.6,0.9-0.6c0.4,0.1,0.6,0.5,0.6,0.9
				l-0.2,1l1,0.2C11.9,20.7,12.1,21.1,12.1,21.5z"/>
		</g>
		<g>
			<path class="st0" d="M58.4,76.6c-0.1,0.4-0.5,0.6-0.9,0.6l-1-0.2l-0.2,1c-0.1,0.4-0.5,0.6-0.9,0.6c-0.4-0.1-0.6-0.5-0.6-0.9
				l0.2-1l-1-0.2c-0.4-0.1-0.6-0.5-0.6-0.9c0.1-0.4,0.5-0.6,0.9-0.6l1,0.2l0.2-1c0.1-0.4,0.5-0.6,0.9-0.6c0.4,0.1,0.6,0.5,0.6,0.9
				l-0.2,1l1,0.2C58.3,75.9,58.5,76.3,58.4,76.6z"/>
		</g>
		<g>
			<path class="st1" d="M61.4,58.4v13.3h-5.9V58.4c0-1.7-0.6-3.3-1.6-4.5c-1.3-1.6-3.3-2.6-5.5-2.6h5.9c2.2,0,4.2,1,5.5,2.6
				C60.8,55.2,61.4,56.7,61.4,58.4z"/>
		</g>
		<g>
			<path class="st2" d="M72.8,71.7V58.4c0-1.7-0.6-3.2-1.6-4.5c-1.3-1.6-3.3-2.6-5.5-2.6H28.1c-1.2,0-2.4,0.3-3.4,0.9
				c-2.2,1.2-3.6,3.5-3.6,6.2v13.3C21.1,71.7,72.8,71.7,72.8,71.7z"/>
		</g>
		<g>
			<path class="st2" d="M52,46.9v4.5l-4.8,3.5l-4.8-3.5v-4.5c1.4,0.6,3,0.9,4.6,0.9h0.4C49.1,47.8,50.6,47.4,52,46.9z"/>
		</g>
		<g>
			<path class="st2" d="M52,46.9v4.5l-4.8,3.5l-4.8-3.5v-4.5c1.4,0.6,3,0.9,4.6,0.9h0.4C49.1,47.8,50.6,47.4,52,46.9z"/>
		</g>
		<g>
			<path class="st2" d="M42.4,47.4L37,51.3c0.3,3.1,2.2,5.9,4.8,7.8c1.1,0.8,2.6,0.4,3.3-0.7l2.1-3.6C44.6,53,42.9,50.6,42.4,47.4z"
				/>
		</g>
		<g>
			<path class="st0" d="M47.2,54.8l-2.1,3.6c-0.7,1.1-2.2,1.5-3.3,0.7c0.1-0.1,0.2-0.2,0.3-0.4l2.1-3.6c-2.2-1.5-3.7-3.4-4.5-5.9
				l2.7-1.9C42.9,50.6,44.6,53,47.2,54.8z"/>
		</g>
		<g>
			<path class="st2" d="M52,47.4l5.4,3.9c-0.3,3.1-2.2,5.9-4.8,7.8c-1.1,0.8-2.6,0.4-3.3-0.7l-2.1-3.6C49.8,53,51.6,50.6,52,47.4z"
				/>
		</g>
		<g>
			<path class="st0" d="M57.5,51.3c-0.3,3.1-2.2,5.9-4.8,7.8c-1.1,0.8-2.6,0.4-3.2-0.7c0.3-0.1,0.6-0.2,0.8-0.4
				c2.6-1.9,4.5-4.7,4.8-7.8L51.9,48c0-0.2,0.1-0.4,0.1-0.6L57.5,51.3z"/>
		</g>
		<g>
			<path class="st2" d="M58.5,36.5c0,6.2-5.1,11.3-11.3,11.3s-11.3-5.1-11.3-11.3c0-6.3,5-13.6,11.3-13.6S58.5,30.2,58.5,36.5z"/>
		</g>
		<g>
			<path class="st0" d="M58.5,36.5c0,6.2-5.1,11.3-11.3,11.3c-0.6,0-1.3-0.1-1.9-0.1c5.4-0.9,9.4-5.5,9.4-11.2
				c0-5.6-4.1-12.1-9.4-13.4c0.6-0.1,1.2-0.2,1.9-0.2C53.5,22.9,58.5,30.2,58.5,36.5z"/>
		</g>
		<g>
			<path class="st2" d="M36.2,38.7c-1.5-5.5-2.1-10.6-1.6-15.1c1.3-8.6,15.8-11.5,20.6-4.2c0.2,0.3,0.4,0.4,0.7,0.5
				c2.7,0.6,4.5,2.3,4.1,7c-0.3,3.9-0.1,4.2-1.7,11.6c0.3-0.1-1.5-8-3.7-11.9c-0.3-0.5-1-0.7-1.5-0.4c-1.9,1.1-4.3,1.4-7.1,1.1
				c-3.9-0.5-6.4,0.5-7.5,3.2C37.7,33.1,36.2,38.7,36.2,38.7z"/>
		</g>
		<g>
			<path class="st0" d="M60,27c-0.3,3.9-0.1,4.2-1.7,11.4c0-0.7-0.6-3.7-1.6-6.6l0,0c0.1-1.2,0.2-2.2,0.3-3.9c0.4-4.7-1.4-6.5-4.1-7
				c-0.3-0.1-0.6-0.3-0.7-0.5c-2.3-3.5-6.7-4.7-10.9-4c4.9-1.9,11.1-1.1,13.9,3.2c0.2,0.3,0.4,0.4,0.7,0.5
				C58.6,20.5,60.4,22.3,60,27z"/>
		</g>
		<g>
			<path class="st0" d="M88.5,59.4c0.4-0.1,0.6-0.5,0.6-0.9l-0.2-1l1-0.2c0.4-0.1,0.6-0.5,0.5-0.9s-0.5-0.6-0.9-0.5l-1,0.2l-0.2-1
				c-0.1-0.4-0.5-0.6-0.9-0.5s-0.6,0.5-0.5,0.9l0.2,1l-1,0.2c-0.4,0.1-0.6,0.5-0.5,0.9s0.5,0.6,0.9,0.6l1-0.2l0.2,1
				C87.7,59.2,88.1,59.5,88.5,59.4z"/>
			<path class="st3" d="M92.5,70.8h-3.6l0,0c-0.6,0-1,0.4-1,1s0.4,1,1,1h3.6l0,0c0.6,0,1-0.4,1-1C93.5,71.2,93.1,70.8,92.5,70.8z"/>
			<path class="st3" d="M49.4,63.9c0-1.2-1-2.2-2.2-2.2s-2.2,1-2.2,2.2s1,2.2,2.2,2.2C48.4,66,49.4,65.1,49.4,63.9z"/>
		</g>
	</g>
</g>
<g>
	<path class="st3" d="M58.5,19.9c-0.6-0.4-1.4-0.7-2.3-0.9c0,0-0.1,0-0.1-0.1c-2.4-3.8-7.5-5.4-12.8-4.3c-5.2,1.1-9,4.6-9.7,8.9
		c-0.5,4.4,0,9.4,1.6,15.4c0.7,3.5,2.9,6.5,5.9,8.2l-4.4,3.2h-8.2c-4.5,0-8.1,3.6-8.1,8.1v12.3H2.5c-0.6,0-1,0.4-1,1
		c0,0.6,0.4,1,1,1h19.7c0,0,0,0,0.1,0h11.6c0.6,0,1-0.4,1-1c0-0.6-0.4-1-1-1H22.4V58.4c0-3.4,2.7-6.1,6.1-6.1h7.7
		c0.6,2.9,2.4,5.6,5.1,7.6c0.5,0.4,1.2,0.6,1.9,0.6c1.2,0,2.2-0.6,2.8-1.6l1.3-2.1l1.3,2.1c0.5,0.8,1.3,1.4,2.2,1.6
		c0.9,0.2,1.8,0,2.5-0.5c2.7-2,4.5-4.7,5.1-7.6H66c3.4,0,6.1,2.7,6.1,6.1v12.3H40.5c-0.6,0-1,0.4-1,1s0.4,1,1,1h7.9h0.1h34
		c0.6,0,1-0.4,1-1s-0.5-1-1-1h-8.4V58.4c0-4.5-3.6-8.1-8.1-8.1h-8.2l-4.4-3.2c3.1-1.8,5.4-5,6-8.7c1-4.6,1.3-6.4,1.4-8.2l0.3-2.8
		c0-0.2,0-0.3,0-0.5c0.2-2.5-0.1-4.4-1.1-5.8L58.5,19.9z M44.3,57.9c-0.4,0.6-1.2,0.9-1.8,0.4c-2.4-1.7-3.9-4.1-4.4-6.5l3.7-2.7
		c0.7,2.3,2,4.3,4.2,6L44.3,57.9z M47.2,53.6c-1.9-1.5-3.1-3.3-3.6-5.3c2.3,0.7,4.9,0.7,7.3,0C50.4,50.3,49.2,52.1,47.2,53.6z
		 M56.4,51.8c-0.4,2.5-2,4.8-4.4,6.5c-0.6,0.4-1.4,0.2-1.8-0.4l-1.7-2.8c2.1-1.7,3.5-3.7,4.2-6L56.4,51.8z M57.3,38.5
		c-1,4.7-5.1,8.2-10.1,8.2c-4.9,0.1-9-3.4-10-8c0.3-1.1,1.5-5.7,2.3-7.8c0.3-0.8,1.2-3.2,6.4-2.5c3.1,0.3,5.6-0.1,7.6-1.3
		c0.1,0,0.1,0,0.2,0c1.9,3.4,3.5,9.9,3.6,11.1C57.3,38.3,57.3,38.4,57.3,38.5z M59.1,26.8C59,27.6,59,28.2,59,28.7
		c-0.1,1.5-0.2,2.6-0.6,4.7c-0.7-2.6-1.8-5.6-2.8-7.4c-0.6-1-1.9-1.4-2.9-0.8c-1.7,0.9-3.8,1.3-6.4,1c-4.5-0.6-7.3,0.7-8.5,3.8
		c-0.4,1.1-0.9,2.9-1.4,4.4c-1-3.9-1.2-7.5-0.8-10.7c0.5-3.4,3.7-6.3,8.1-7.2c0.9-0.2,1.8-0.3,2.8-0.3c2.9,0,6.1,1,7.9,3.7
		c0.3,0.5,0.8,0.8,1.4,0.9C57.6,21.2,59.5,22.2,59.1,26.8z"/>
</g>
</svg>
