<?xml version="1.0" encoding="utf-8"?>
<!-- Generator: Adobe Illustrator 21.0.0, SVG Export Plug-In . SVG Version: 6.00 Build 0)  -->
<svg version="1.1" id="Layer_1" xmlns="http://www.w3.org/2000/svg" xmlns:xlink="http://www.w3.org/1999/xlink" x="0px" y="0px"
	 viewBox="0 0 95 95" style="enable-background:new 0 0 95 95;" xml:space="preserve">
<style type="text/css">
	.st0{fill:#D0F7F7;}
	.st1{fill:#E8F0FD;}
	.st2{fill:#FFFFFF;}
	.st3{opacity:0.3;}
	.st4{fill:#A8DADC;}
	.st5{fill:#10BDC7;}
</style>
<title>Custon Features Reguests</title>
<path class="st0" d="M88.4,47.7c0,4.9-4.2,8.9-8.7,10.5s-9.5,1.5-14.3,2S55,65.1,51.6,68.6c-2.2,2.3-3.3,5.4-4.9,8.2
	s-3.8,5.5-6.9,6.2c-3.4,0.7-6.9-1.5-8.9-4.3c-2-2.9-2.9-6.4-3.9-9.8s-1.5-10.1-3.9-12.7c-2.1-2.2-4.9-3.6-7.6-5s-5.5-2.9-7.2-5.4
	c-1.8-2.5-2.3-6.1-0.4-8.5c2.4-3,6.8-2.6,10.6-2.9c7.2-0.7,13.6-4.8,17.3-11c1.3-2.3,2.2-4.8,3.7-7.1c1.5-2.2,3.6-4.2,6.3-4.5
	c3.7-0.4,6.8,2.6,9.4,5.3c4.9,5.2,9.6,11.8,16,15.2C77.4,35.7,88.4,38.7,88.4,47.7z"/>
<path class="st0" d="M23.7,24.3c0.2,0.4,0,0.8-0.3,1c0,0,0,0-0.1,0l-1,0.4l0.4,1c0.2,0.3,0.1,0.7-0.2,0.8c-0.1,0-0.1,0.1-0.2,0.1
	c-0.4,0.1-0.8,0-0.9-0.4l-0.4-1l-1,0.4c-0.3,0.2-0.7,0.1-0.8-0.2c0-0.1-0.1-0.1-0.1-0.2c-0.1-0.4,0-0.8,0.4-0.9l1-0.4l-0.4-1
	c-0.1-0.4,0-0.8,0.4-0.9c0.4-0.2,0.8,0,1,0.3c0,0,0,0,0,0.1l0.4,1l1-0.4C23.1,23.8,23.5,24,23.7,24.3z"/>
<path class="st0" d="M14.5,54.7c0.2,0.4,0,0.8-0.3,1c0,0,0,0-0.1,0l-1,0.4l0.4,1c0.2,0.3,0.1,0.7-0.2,0.8c-0.1,0-0.1,0.1-0.2,0.1
	c-0.4,0.1-0.8,0-0.9-0.4l-0.4-1l-1,0.4c-0.3,0.2-0.7,0.1-0.8-0.2c0-0.1-0.1-0.1-0.1-0.2c-0.1-0.4,0-0.8,0.4-0.9l1-0.4l-0.4-1
	c-0.1-0.4,0-0.8,0.4-0.9c0.4-0.2,0.8,0,1,0.3c0,0,0,0,0,0.1l0.4,1l1-0.4C13.9,54.1,14.3,54.3,14.5,54.7z"/>
<path class="st1" d="M69.8,18.1h-0.3v56.8h0.3c1.9,0,3.4-1.5,3.4-3.3c0,0,0,0,0-0.1v-50C73.1,19.6,71.7,18.2,69.8,18.1z"/>
<path class="st2" d="M73.2,21.5v50.1c0,1.9-1.5,3.4-3.3,3.4c0,0,0,0-0.1,0H34.4c-1.9,0-3.4-1.5-3.4-3.3c0,0,0,0,0-0.1V21.5
	c0-1.9,1.5-3.4,3.3-3.4c0,0,0,0,0.1,0h35.3C71.6,18.1,73.2,19.6,73.2,21.5z"/>
<g class="st3">
	<path class="st0" d="M41.5,65.3c-0.1,3.3-1.4,6.5-3.8,8.9c-0.2,0.3-0.5,0.5-0.8,0.7h-2.4c-1.9,0-3.4-1.5-3.4-3.3c0,0,0,0,0-0.1v-19
		c2.6,0.5,5,1.8,6.9,3.7C40.3,58.7,41.6,61.9,41.5,65.3z"/>
</g>
<path class="st0" d="M50.3,63H38.4c-1.3,0-2.4-1.1-2.4-2.4v-9.9c0-1.3,1.1-2.4,2.4-2.4h11.9c1.3,0,2.4,1.1,2.4,2.4v9.9
	C52.7,61.9,51.6,63,50.3,63z"/>
<path class="st2" d="M47.2,32v10.6c0,1-0.9,1.9-1.9,1.9h0H27c-1,0-1.9-0.9-1.9-1.9l0,0V32c0-1,0.9-1.9,1.9-1.9h18.3
	c1,0,1.9,0.8,1.9,1.8C47.2,31.9,47.2,32,47.2,32z"/>
<path class="st0" d="M42.9,34.9H29.3c-0.6,0-1-0.4-1-1c0-0.5,0.4-1,0.9-1c0,0,0.1,0,0.1,0h13.6c0.6,0,1,0.4,1,1c0,0.5-0.4,1-0.9,1
	C43,34.9,42.9,34.9,42.9,34.9z"/>
<path class="st0" d="M42.9,38.2H29.3c-0.6,0-1-0.4-1-1s0.4-1,1-1h13.6c0.6,0,1,0.4,1,1c0,0.5-0.4,1-0.9,1
	C43,38.2,42.9,38.2,42.9,38.2z"/>
<path class="st0" d="M39,41.6h-5.8c-0.6,0-1-0.4-1-1s0.4-1,1-1H39c0.6,0,1,0.4,1,1c0,0.5-0.4,1-0.9,1C39.1,41.6,39,41.6,39,41.6z"/>
<path class="st2" d="M56.5,61V50.6c0-1,0.9-1.9,1.9-1.9h0H74c1,0,1.9,0.9,1.9,1.9v0V61c0,1-0.9,1.9-1.9,1.9l0,0H58.5
	c-1,0.1-1.9-0.7-2-1.7C56.5,61.1,56.5,61.1,56.5,61z"/>
<path class="st4" d="M76.1,50.6V61c0,1-0.9,1.9-1.9,1.9l0,0h-2.5c1,0,1.9-0.9,1.9-1.9v0V50.6c0-1-0.9-1.9-1.9-1.9l0,0h2.5
	c1,0,1.9,0.8,1.9,1.8C76.1,50.5,76.1,50.6,76.1,50.6z"/>
<path class="st2" d="M38.6,65.2c-0.1,5.4-4.6,9.8-10,9.7c-5.4-0.1-9.8-4.6-9.7-10c0.1-5.4,4.6-9.8,10-9.7
	C34.3,55.3,38.7,59.7,38.6,65.2C38.6,65.2,38.6,65.2,38.6,65.2z"/>
<path class="st0" d="M38.6,65.3c-0.1,5.4-4.6,9.8-10,9.7c-0.5,0-1-0.1-1.4-0.1c4.9-0.6,8.5-4.7,8.6-9.6c0.1-4.9-3.4-9.1-8.2-9.9
	c0.5-0.1,0.9-0.1,1.4-0.1c5.4,0,9.7,4.4,9.6,9.8C38.6,65.2,38.6,65.2,38.6,65.3z"/>
<path class="st5" d="M85.9,23.4H87v1.1c0,0.4,0.3,0.8,0.7,0.8s0.8-0.3,0.8-0.7c0,0,0,0,0,0v-1.1h1.1c0.4,0,0.8-0.3,0.8-0.7
	c0-0.4-0.3-0.7-0.7-0.8h-1.1v-1.1c0-0.4-0.3-0.8-0.7-0.8s-0.8,0.3-0.8,0.7c0,0,0,0,0,0v1.1L86,22c-0.4,0-0.7,0.3-0.8,0.7
	C85.2,23.1,85.5,23.4,85.9,23.4C85.9,23.4,85.9,23.4,85.9,23.4z"/>
<path class="st5" d="M69.5,79.1h-1.1V78c0-0.4-0.3-0.7-0.7-0.7c0,0-0.1,0-0.1,0c-0.4,0-0.7,0.3-0.7,0.7c0,0,0,0,0,0v1.1h-1.1
	c-0.4,0-0.7,0.3-0.7,0.7c0,0.4,0.3,0.7,0.7,0.7h1.1v1.1c0,0.4,0.3,0.7,0.7,0.7c0.4,0,0.7-0.3,0.7-0.7v-1.1h1.1
	c0.4,0,0.7-0.3,0.7-0.7c0,0,0-0.1,0-0.1C70.2,79.4,69.9,79.1,69.5,79.1z"/>
<path class="st5" d="M14.8,73.9H2.5c-0.6,0-1,0.4-1,1s0.4,1,1,1h12.3c0.5,0,1-0.4,1-0.9c0,0,0-0.1,0-0.1
	C15.8,74.3,15.4,73.9,14.8,73.9z"/>
<path class="st5" d="M76.9,74h-2.7V64c1.6,0,2.9-1.3,2.9-2.9c0,0,0,0,0,0V50.6c0-1.6-1.3-2.9-2.9-2.9l0,0V21.5c0-2.4-2-4.4-4.4-4.4
	H34.4c-2.4,0-4.4,2-4.4,4.4V29h-3c-1.6,0-3,1.4-3,3v10.6c0,1.6,1.3,2.9,2.9,2.9l0,0H30v8.8c-0.4,0-0.7-0.1-1.1-0.1
	c-2.9,0-5.6,1-7.7,3c-2.1,2-3.3,4.7-3.3,7.6c-0.1,2.9,1,5.6,3,7.7c0.5,0.5,1,0.9,1.6,1.3H20c-0.6,0-1,0.4-1,1s0.4,1,1,1h56.8
	c0.5,0,1-0.4,1-0.9c0,0,0-0.1,0-0.1C77.9,74.4,77.4,74,76.9,74z M38.9,68.8h33.2v5.1H35c0.4-0.3,0.9-0.7,1.3-1
	C37.5,71.8,38.4,70.3,38.9,68.8z M75.1,50.6V61c0,0.5-0.4,0.9-0.9,0.9l0,0H58.5c-0.5,0-0.9-0.4-0.9-0.9v0V50.6
	c0-0.5,0.4-0.9,0.9-0.9h0h15.6C74.6,49.7,75.1,50,75.1,50.6C75.1,50.6,75.1,50.6,75.1,50.6z M32.1,21.5c0-1.3,1.1-2.4,2.4-2.4h35.4
	c1.3,0,2.4,1.1,2.4,2.4v2.7H32.1V21.5z M26,42.6V32c0-0.5,0.4-0.9,0.9-0.9h18.3c0.5,0,0.9,0.4,0.9,0.9c0,0,0,0,0,0v10.6
	c0,0.5-0.4,0.9-0.9,0.9h0H27C26.5,43.5,26,43.1,26,42.6z M32.1,45.5h13.2c1.6,0,2.9-1.3,2.9-2.9c0,0,0,0,0,0V32
	c0-1.6-1.3-2.9-2.9-2.9l0,0H32.1v-2.9h40.1v21.5H58.5c-1.6,0-2.9,1.3-2.9,2.9c0,0,0,0,0,0V61c0,1.6,1.3,2.9,2.9,2.9c0,0,0,0,0,0
	h13.7v2.9H39.4c0.1-0.5,0.1-1,0.2-1.6c0.1-4.8-2.9-9.1-7.5-10.5L32.1,45.5z M19.9,64.9c0-2.4,1-4.6,2.7-6.2c1.7-1.6,4-2.5,6.3-2.5
	c4.9,0.1,8.8,4.1,8.7,9c0,0,0,0,0,0c0,2.4-1,4.6-2.7,6.2c-1.7,1.6-4,2.5-6.3,2.5c-2.4,0-4.6-1-6.2-2.7
	C20.8,69.5,19.9,67.2,19.9,64.9z"/>
<path class="st5" d="M92.5,74H81.8c-0.6,0-1,0.4-1,1s0.4,1,1,1h10.7c0.6,0,1-0.4,1-1S93.1,74,92.5,74z"/>
<path class="st5" d="M58.5,43.4h7.9c1,0,1.9-0.9,1.9-1.9v0V32c0-1-0.9-1.9-1.9-1.9l0,0h-7.9c-1,0-1.9,0.9-1.9,1.9c0,0,0,0,0,0v9.5
	c0,1,0.8,1.9,1.8,1.9C58.4,43.4,58.5,43.4,58.5,43.4z"/>
<path class="st5" d="M52.1,73c0.9,0,1.6-0.7,1.6-1.6s-0.7-1.6-1.6-1.6c-0.9,0-1.6,0.7-1.6,1.6l0,0C50.5,72.3,51.2,73,52.1,73
	C52.1,73,52.1,73,52.1,73z"/>
<path class="st5" d="M57.6,20.7h-5.9c-0.6,0-1,0.4-1,1s0.4,1,1,1h5.9c0.6,0,1-0.4,1-1S58.2,20.7,57.6,20.7z"/>
<path class="st5" d="M47.8,20.7h-1.2c-0.6,0-1,0.4-1,1s0.4,1,1,1h1.2c0.6,0,1-0.4,1-1S48.4,20.7,47.8,20.7z"/>
<path class="st5" d="M67.8,55.4c-0.1-0.1-0.1-0.3,0-0.4l0.8-0.8c0.2-0.1,0.2-0.4,0.1-0.6c-0.1-0.1-0.2-0.2-0.3-0.2L62.9,52
	c-0.2-0.1-0.4,0.1-0.4,0.3l1.2,5.6c0,0.2,0.3,0.4,0.5,0.4c0.1,0,0.2-0.1,0.3-0.2l0.8-0.8c0.1-0.1,0.3-0.1,0.4,0l2.2,2.2
	c0.1,0.1,0.3,0.1,0.4,0l1.5-1.5c0.1-0.1,0.1-0.3,0-0.4L67.8,55.4z"/>
<path class="st5" d="M33.6,61.6c-0.3-0.3-0.8-0.3-1.1,0l-5.3,5.3l-2.1-2.1c-0.3-0.3-0.8-0.3-1.1,0c-0.3,0.3-0.3,0.8,0,1.1
	c0,0,0,0,0,0l2.6,2.6c0.3,0.3,0.8,0.3,1.1,0l5.8-5.8c0.3-0.2,0.4-0.7,0.2-1C33.7,61.7,33.6,61.6,33.6,61.6z"/>
</svg>
