<?xml version="1.0" encoding="utf-8"?>
<!-- Generator: Adobe Illustrator 21.0.0, SVG Export Plug-In . SVG Version: 6.00 Build 0)  -->
<svg version="1.1" id="Layer_1" xmlns="http://www.w3.org/2000/svg" xmlns:xlink="http://www.w3.org/1999/xlink" x="0px" y="0px"
	 viewBox="0 0 95 95" style="enable-background:new 0 0 95 95;" xml:space="preserve">
<style type="text/css">
	.st0{fill:#D0F7F7;}
	.st1{fill:#FFFFFF;}
	.st2{fill:#10BDC7;}
</style>
<title>FreeIntegration</title>
<path class="st0" d="M86.3,47.8c0,4.9-4.2,8.9-8.7,10.5s-9.5,1.5-14.3,2c-4.8,0.4-10.4,4.9-13.8,8.4c-2.2,2.3-3.3,5.4-4.9,8.2
	s-3.8,5.5-6.9,6.2c-3.4,0.7-6.9-1.5-8.9-4.3c-2-2.9-2.9-6.4-3.9-9.8S23.4,58.9,21,56.3c-2.1-2.2-4.9-3.6-7.6-5s-5.5-2.9-7.2-5.4
	c-1.8-2.5-2.3-6.1-0.4-8.5c2.4-3,6.8-2.6,10.6-2.9c7.2-0.7,13.6-4.8,17.3-11c1.3-2.3,2.2-4.8,3.7-7.1c1.5-2.2,3.6-4.2,6.3-4.5
	c3.7-0.4,6.8,2.6,9.4,5.3c4.9,5.2,9.6,11.8,16,15.2C75.4,35.8,86.3,38.8,86.3,47.8z"/>
<path class="st0" d="M12.1,24.8c-0.1,0.4-0.5,0.6-0.9,0.6l-1-0.2l-0.2,1c-0.1,0.4-0.5,0.6-0.9,0.6c-0.4-0.1-0.6-0.5-0.6-0.9l0.2-1
	l-1-0.2c-0.4-0.1-0.6-0.5-0.6-0.9c0.1-0.4,0.5-0.7,0.9-0.6l1,0.2l0.2-1c0.1-0.4,0.5-0.6,0.9-0.6c0.4,0.1,0.6,0.5,0.6,0.9l-0.2,1
	l1,0.2C11.9,24,12.1,24.3,12.1,24.8z"/>
<path class="st0" d="M58.4,80c-0.1,0.4-0.5,0.6-0.9,0.6l-1-0.2l-0.2,1c-0.1,0.4-0.5,0.7-0.9,0.6s-0.7-0.5-0.6-0.9c0,0,0,0,0,0l0.2-1
	l-1-0.2c-0.4-0.1-0.7-0.5-0.6-0.9c0.1-0.4,0.5-0.7,0.9-0.6l1,0.2l0.2-1c0.1-0.4,0.5-0.7,0.9-0.6c0.4,0.1,0.7,0.5,0.6,0.9l-0.2,1
	l1,0.2c0.4,0,0.7,0.4,0.6,0.8C58.4,79.9,58.4,79.9,58.4,80z"/>
<path class="st1" d="M52.1,72.9"/>
<path class="st1" d="M43.7,24.3H69c1.3,0,2.6,0.6,3.5,1.5L82.8,37c0.8,0.9,0.8,2.3,0,3.2L56.5,69.7L29.7,40.2
	c-0.8-0.9-0.8-2.3,0-3.2l10.6-11.2C41.2,24.8,42.4,24.2,43.7,24.3z"/>
<path class="st0" d="M82.9,40.2L56.5,69.7L54,66.9l23.9-26.8c0.8-0.9,0.8-2.3,0-3.2L67.5,25.8c-0.9-1-2.2-1.5-3.5-1.5h5
	c1.3,0,2.6,0.5,3.5,1.5L82.8,37C83.7,37.8,83.7,39.2,82.9,40.2z"/>
<path class="st1" d="M58.5,63.4l19.3-8.6c2-0.9,4.4,0,5.3,2l0,0c0.9,2,0.1,4.3-1.8,5.3L61.1,72.3C57.5,74,53.6,75,49.6,75l0,0
	c-3.1,0-6.1-0.6-9-1.7l-12.8-4.8V51.2H29c3.1,0,6.2,0.8,8.9,2.4l0,0c2.7,1.6,5.8,2.4,8.9,2.4h9.5c2.2,0,4.1,1.8,4.1,4
	c0,0,0,0.1,0,0.1l0,0c0,2.2-1.8,4.1-4,4.1c0,0-0.1,0-0.1,0h-14"/>
<path class="st0" d="M27.7,51.2v17.4l12.8,4.8c2.9,1.1,5.9,1.6,9,1.6c0.6,0,1.3,0,1.9-0.1c-2.4-0.2-4.8-0.7-7.1-1.6l-12.8-4.8V51.4
	c-0.9-0.1-1.8-0.2-2.7-0.2H27.7z"/>
<path class="st1" d="M13.1,46.5H26c0.9,0,1.6,0.7,1.6,1.6c0,0,0,0,0,0v23.1c0,0.9-0.7,1.6-1.6,1.6c0,0,0,0,0,0H13.1
	c-0.9,0-1.6-0.7-1.6-1.6c0,0,0,0,0,0V48.1C11.5,47.2,12.2,46.5,13.1,46.5C13.1,46.5,13.1,46.5,13.1,46.5z"/>
<path class="st0" d="M11.5,48.1v23.1c0,0.9,0.7,1.6,1.6,1.6c0,0,0,0,0,0h3.4c-0.9,0-1.6-0.7-1.6-1.6c0,0,0,0,0,0V48.1
	c0-0.9,0.7-1.6,1.6-1.6c0,0,0,0,0,0h-3.4C12.2,46.4,11.5,47.1,11.5,48.1C11.5,48,11.5,48,11.5,48.1z"/>
<path class="st2" d="M79.7,20.5l1-0.2l0.2,1c0.1,0.4,0.5,0.6,0.9,0.5c0,0,0,0,0,0c0.4-0.1,0.6-0.5,0.6-0.9l-0.2-1l1-0.2
	c0.4-0.1,0.6-0.5,0.5-0.9c-0.1-0.4-0.5-0.6-0.9-0.5l-1,0.2l-0.2-1c-0.1-0.4-0.5-0.6-0.9-0.5c-0.4,0.1-0.6,0.5-0.5,0.9l0,0l0.2,1
	l-1,0.2c-0.4,0.1-0.6,0.5-0.5,0.9c0,0,0,0,0,0C79,20.3,79.3,20.5,79.7,20.5C79.7,20.5,79.7,20.5,79.7,20.5z"/>
<path class="st2" d="M89.1,61.8l-0.2-1l1-0.2c0.4-0.1,0.6-0.5,0.5-0.9s-0.5-0.6-0.9-0.5l-1,0.2l-0.2-1c-0.1-0.4-0.5-0.6-0.9-0.5
	s-0.6,0.5-0.5,0.9l0.2,1l-1,0.2c-0.4,0.1-0.6,0.5-0.5,0.9c0,0,0,0,0,0c0.1,0.4,0.5,0.6,0.9,0.6l1-0.2l0.2,1c0.1,0.4,0.5,0.6,0.9,0.5
	c0,0,0,0,0,0C88.9,62.5,89.1,62.1,89.1,61.8z"/>
<path class="st2" d="M92.5,74h-3c-0.6,0-1,0.4-1,1s0.4,1,1,1h3c0.6,0,1-0.4,1-1S93.1,74,92.5,74z"/>
<path class="st2" d="M9.6,74H2.5c-0.6,0-1,0.4-1,1s0.4,1,1,1h7.1c0.5,0,1-0.4,1-0.9c0,0,0-0.1,0-0.1C10.6,74.4,10.2,74,9.6,74z"/>
<path class="st2" d="M84,36.9C84,36.8,84,36.8,84,36.9c-0.4-0.5,0.6,0.5-10.8-11.7c-1.1-1.2-2.6-1.8-4.2-1.8H43.7
	c-0.9,0-1.7,0.2-2.5,0.6c-0.6,0.3-1.2,0.7-1.7,1.2c-1.1,1.2,3.9-4.1-10.6,11.2c-1.2,1.3-1.2,3.3,0,4.6l11.8,13
	c-0.8-0.3-1.6-0.7-2.4-1.1c-2.9-1.6-6.1-2.5-9.4-2.5h-0.2v-2.3c0-1.4-1.2-2.6-2.6-2.6h-13c-1.4,0-2.6,1.2-2.6,2.6v23.1
	c0,1.4,1.2,2.6,2.6,2.6H26c1.4,0,2.6-1.2,2.6-2.6v-1.3l10.7,4H16.2c-0.6,0-1,0.4-1,1s0.4,1,1,1h67c0.6,0,1-0.4,1-1s-0.4-1-1-1H59.6
	c0.7-0.3,1.3-0.6,1.9-0.9l20.2-10.2c2.5-1.3,3.5-4.3,2.2-6.8c-1.2-2.4-4.1-3.4-6.5-2.3l-9.1,4.1l15.3-17.1
	C84.6,39.6,84.8,38.1,84,36.9z M26.7,71.3c0,0.3-0.3,0.6-0.6,0.6h-13c-0.3,0-0.6-0.3-0.6-0.6V48.1c0-0.3,0.3-0.6,0.6-0.6H26
	c0.3,0,0.6,0.3,0.6,0.6v23.2H26.7z M56.2,54.9h-4.5L46,40.3h20.6l-6.4,16.6C59.2,55.6,57.8,54.9,56.2,54.9z M30.1,38.3L30.1,38.3
	c0-0.2,0-0.2,0.1-0.3s0.1-0.3,0.2-0.4c0.2-0.2,10.5-11.1,10.6-11.2c0.7-0.7,1.7-1.2,2.7-1.2h4.8l-5.2,12.9v0.2H30.1z M45.3,38.3
	l5.3-13H62l5.2,13H45.3z M69.3,38.3v-0.2l-5.1-12.9h4.9c1,0,2,0.4,2.7,1.2c1.1,1.2,9.3,10.1,10.3,11.2c0.1,0.1,0.2,0.2,0.2,0.4v0.3
	H69.3z M31.2,40.3h12.6l5.7,14.6h-2.8c-0.8,0-1.6-0.1-2.4-0.2L31.2,40.3z M78.3,55.7c1.4-0.7,3.2-0.1,3.9,1.4c0,0,0,0.1,0,0.1
	c0.7,1.5,0.1,3.3-1.4,4L60.7,71.4c-6.2,3.1-13.3,3.5-19.8,1.1l-12.2-4.6V52.2h0.2c2.9,0,5.8,0.8,8.4,2.2c2.9,1.6,6.1,2.5,9.4,2.5
	h9.5c1.7,0,3.1,1.4,3.1,3.1c0,1-0.5,1.9-1.3,2.5c-0.1,0-0.1,0-0.1,0.1c-0.5,0.3-1.1,0.5-1.7,0.5h-14c-0.6,0-1,0.4-1,1
	c0,0.6,0.4,1,1,1h14c1,0,2-0.3,2.8-0.9L78.3,55.7z M61.2,61.2c0.1-0.4,0.1-0.7,0.1-1.1v-0.2l7.5-19.5h12.6L63.9,59.9L61.2,61.2z"/>
<path class="st2" d="M19.6,50.7c-1.5,0-2.8,1.3-2.8,2.8c0,1.5,1.3,2.8,2.8,2.8c1.5,0,2.8-1.3,2.8-2.8l0,0
	C22.4,51.9,21.1,50.7,19.6,50.7z"/>
</svg>
