<?xml version="1.0" encoding="utf-8"?>
<!-- Generator: Adobe Illustrator 22.0.1, SVG Export Plug-In . SVG Version: 6.00 Build 0)  -->
<svg version="1.1" id="Layer_1" xmlns="http://www.w3.org/2000/svg" xmlns:xlink="http://www.w3.org/1999/xlink" x="0px" y="0px"
	 viewBox="0 0 95 95" style="enable-background:new 0 0 95 95;" xml:space="preserve">
<style type="text/css">
	.st0{fill:#D0F7F7;}
	.st1{fill:#FFFFFF;}
	.st2{fill:#D0F7F7;}
	.st3{fill:#10bdc7;}
	.st4{opacity:0.5;}
	.st5{opacity:0.3;}
	.st6{fill:none;}
	.st7{fill:#E8EFF8;}
</style>
<g>
	<g>
		<g>
			<path class="st0" d="M45.3,78.1c0-0.3,0.3-0.6,0.6-0.6l0.9,0l0-0.9c0-0.3,0.3-0.6,0.6-0.6c0.3,0,0.6,0.3,0.6,0.6l0,0.9l0.9,0
				c0.3,0,0.6,0.3,0.6,0.6c0,0.3-0.3,0.6-0.6,0.6l-0.9,0l0,0.9c0,0.3-0.3,0.6-0.6,0.6c-0.3,0-0.6-0.3-0.6-0.6l0-0.9l-0.9,0
				C45.6,78.7,45.4,78.4,45.3,78.1z"/>
		</g>
		<g>
			<path class="st0" d="M82.7,36.2c-4.3,2.9-9.3,4.6-13.5,7.6c-4.2,3.1-7.5,8.3-5.9,13.3c1,3.4,4,5.7,5.5,8.9
				c1.9,4.2,0.8,9.5-2.4,12.9c-3.2,3.3-8.2,4.7-12.7,3.9c-4.6-0.8-8.6-3.7-11.3-7.4c-1.8-2.5-3-5.4-4.8-7.9
				c-1.7-2.5-4.2-4.8-7.3-5.3c-5.9-0.8-11,5.5-17,5.1C9.5,67,6.2,63.7,5.4,60c-0.8-3.7,0.5-7.7,3-10.6c2.5-2.9,6-4.8,9.7-5.8
				c2.5-0.7,5.1-1.1,7.6-2c2.5-0.9,4.8-2.4,6.1-4.7c3-5.8-2.3-13.1,0-19.1c1.3-3.5,5.2-5.7,8.9-5.6c3.7,0.1,7.3,2.1,9.6,5
				c1.4,1.7,3.2,8.7,4.9,9.3c2,0.6,8.5-5.9,10.3-7.1c4.1-2.6,8.8-4.6,13.6-4.3c4.8,0.4,9.6,3.7,10.5,8.4
				C90.6,28.4,87,33.3,82.7,36.2z"/>
		</g>
		<g>
			<path class="st2" d="M10,39.6c0,0.4-0.4,0.7-0.8,0.7l-1.1,0l0,1.1c0,0.4-0.4,0.7-0.8,0.7c-0.4,0-0.7-0.3-0.7-0.8l0-1.1l-1.1,0
				c-0.4,0-0.7-0.4-0.7-0.8c0-0.4,0.3-0.7,0.8-0.7l1.1,0l0-1.1c0-0.4,0.4-0.7,0.8-0.7c0.4,0,0.7,0.4,0.7,0.8l0,1.1l1.1,0
				C9.7,38.9,10,39.2,10,39.6z"/>
		</g>
		<g>
			<path class="st2" d="M86.1,63.9c0.2,0.4,0,0.8-0.4,1l-1,0.4l0.4,1c0.2,0.4,0,0.8-0.4,1c-0.4,0.2-0.8,0-1-0.4l-0.4-1l-1,0.4
				c-0.4,0.2-0.8,0-1-0.4c-0.2-0.4,0-0.8,0.4-1l1-0.4l-0.4-1c-0.2-0.4,0-0.8,0.4-1c0.4-0.2,0.8,0,1,0.4l0.4,1l1-0.4
				C85.5,63.3,85.9,63.5,86.1,63.9z"/>
		</g>
		<g>
			<g>
				<g>
					<g>
						<g>
							<g>
								<path class="st2" d="M46.2,55c0,1.2-0.7,2.2-1.7,2.7l-1.9,0.9v1.3c0,2.4-1.9,4.3-4.3,4.3h-10V45.8h10c2.4,0,4.3,1.9,4.3,4.3
									v1.3l1.9,0.9C45.6,52.8,46.2,53.8,46.2,55z"/>
							</g>
						</g>
					</g>
				</g>
			</g>
			<g>
				<g>
					<g>
						<g>
							<g>
								<path class="st1" d="M67,22.7v48.1c0,2.2-1.8,4-4,4H32.2c-2.2,0-4-1.8-4-4V22.7c0-2.2,1.8-4,4-4H63
									C65.2,18.7,67,20.5,67,22.7z"/>
							</g>
						</g>
						<g>
							<g class="st5">
								<g>
									<g>
										<g>
											<g>
												<path class="st2" d="M67,29.3v18.5H56.8c-2.4,0-4.3-1.9-4.3-4.3v-1.3l-1.9-0.9c-1.1-0.5-1.7-1.6-1.7-2.7
													c0-1.2,0.7-2.2,1.7-2.7l1.9-0.9v-1.3c0-2.4,1.9-4.3,4.3-4.3H67z"/>
											</g>
										</g>
									</g>
								</g>
							</g>
							<g class="st5">
								<g>
									<g>
										<g>
											<g>
												<path class="st2" d="M46.2,55c0,1.2-0.7,2.2-1.7,2.7l-1.9,0.9v1.3c0,2.4-1.9,4.3-4.3,4.3h-10V45.8h10
													c2.4,0,4.3,1.9,4.3,4.3v1.3l1.9,0.9C45.6,52.8,46.2,53.8,46.2,55z"/>
											</g>
										</g>
									</g>
								</g>
							</g>
						</g>
						<g>
							<g>
								<path class="st0" d="M53.8,22.6c0,0.6-0.4,1-1,1H47c-0.6,0-1-0.5-1-1c0-0.6,0.5-1,1-1h5.8C53.4,21.6,53.8,22.1,53.8,22.6z"
									/>
							</g>
							<g>
								<path class="st0" d="M44.7,22.6c0,0.6-0.5,1-1,1h-1.1c-0.6,0-1-0.5-1-1c0-0.6,0.4-1,1-1h1.1C44.2,21.6,44.7,22.1,44.7,22.6z
									"/>
							</g>
						</g>
					</g>
				</g>
			</g>
			<g>
				<g>
					<path class="st1" d="M47.2,38.6c0,3.6-2.9,6.5-6.5,6.5c-3.6,0-6.5-2.9-6.5-6.5c0-3.6,2.9-6.5,6.5-6.5
						C44.3,32.1,47.2,35,47.2,38.6z"/>
				</g>
				<g>
					<path class="st0" d="M45.1,43.2c-1.1,1.1-2.7,1.8-4.4,1.8c-1.7,0-3.2-0.7-4.4-1.8c0.5-1.2,1.4-2.1,2.5-2.6
						C38,40,37.4,39,37.4,37.9c0-1.8,1.5-3.3,3.3-3.3c1.8,0,3.3,1.5,3.3,3.3c0,1.1-0.6,2.2-1.5,2.8C43.7,41.1,44.6,42,45.1,43.2z"/>
				</g>
			</g>
			<g>
				<g>
					<path class="st1" d="M61,55c0,3.6-2.9,6.5-6.5,6.5c-3.6,0-6.5-2.9-6.5-6.5c0-3.6,2.9-6.5,6.5-6.5C58.1,48.5,61,51.4,61,55z"/>
				</g>
				<g>
					<path class="st0" d="M58.9,59.6c-1.1,1.1-2.7,1.8-4.4,1.8c-1.7,0-3.2-0.7-4.4-1.8c0.5-1.2,1.4-2.1,2.5-2.6
						c-0.9-0.6-1.5-1.6-1.5-2.8c0-1.8,1.5-3.3,3.3-3.3c1.8,0,3.3,1.5,3.3,3.3c0,1.1-0.6,2.2-1.5,2.8C57.6,57.5,58.5,58.5,58.9,59.6z
						"/>
				</g>
			</g>
			<g>
				<g>
					<g>
						<path class="st1" d="M54.8,33.7v1.6c0,0.8-0.4,1.4-1.1,1.7l-2.2,1c-0.5,0.2-0.5,0.9,0,1.1l2.2,1c0.7,0.3,1.1,1,1.1,1.7v1.6
							c0,1.1,0.9,1.9,1.9,1.9h23.7c1.1,0,1.9-0.9,1.9-1.9v-9.8c0-1.1-0.9-1.9-1.9-1.9H56.8C55.7,31.7,54.8,32.6,54.8,33.7z"/>
					</g>
				</g>
				<g>
					<g>
						<path class="st0" d="M80.5,31.7h-2c1.1,0,1.9,0.9,1.9,1.9v9.8c0,1.1-0.9,1.9-1.9,1.9h2c1.1,0,1.9-0.9,1.9-1.9v-9.8
							C82.4,32.6,81.6,31.7,80.5,31.7z"/>
					</g>
				</g>
				<g>
					<g>
						<path class="st0" d="M79,40.7c0,0.5-0.4,0.8-0.8,0.8H59c-0.5,0-0.8-0.4-0.8-0.8c0-0.5,0.4-0.8,0.8-0.8h19.2
							C78.7,39.9,79,40.3,79,40.7z"/>
					</g>
					<g>
						<g>
							<path class="st0" d="M79,36.4c0,0.5-0.4,0.8-0.8,0.8H59c-0.5,0-0.8-0.4-0.8-0.8s0.4-0.8,0.8-0.8h19.2
								C78.7,35.6,79,35.9,79,36.4z"/>
						</g>
					</g>
				</g>
			</g>
			<g>
				<g>
					<g>
						<path class="st1" d="M38.2,48.2H14.5c-1.1,0-1.9,0.9-1.9,1.9v9.8c0,1.1,0.9,1.9,1.9,1.9h23.7c1.1,0,1.9-0.9,1.9-1.9v-1.6
							c0-0.8,0.4-1.4,1.1-1.7l2.2-1c0.5-0.2,0.5-0.9,0-1.1l-2.2-1c-0.7-0.3-1.1-1-1.1-1.7v-1.6C40.2,49,39.3,48.2,38.2,48.2z"/>
					</g>
				</g>
				<g>
					<g>
						<path class="st0" d="M12.6,50.1v9.8c0,1.1,0.9,1.9,1.9,1.9h2c-1.1,0-1.9-0.9-1.9-1.9v-9.8c0-1.1,0.9-1.9,1.9-1.9h-2
							C13.4,48.2,12.6,49,12.6,50.1z"/>
					</g>
				</g>
				<g>
					<path class="st3" d="M79.4,23.3l1.1,0l0,1.1c0,0.4,0.3,0.7,0.7,0.8c0.4,0,0.7-0.3,0.8-0.7l0-1.1l1.1,0c0.4,0,0.7-0.3,0.8-0.7
						c0-0.4-0.3-0.7-0.7-0.8l-1.1,0l0-1.1c0-0.4-0.3-0.7-0.7-0.8c-0.4,0-0.7,0.3-0.8,0.7l0,1.1l-1.1,0c-0.4,0-0.7,0.3-0.8,0.7
						C78.7,22.9,79,23.3,79.4,23.3z"/>
					<path class="st3" d="M5.9,73.9H2.5c-0.6,0-1,0.4-1,1s0.4,1,1,1h3.4c0.6,0,1-0.4,1-1S6.5,73.9,5.9,73.9z"/>
					<path class="st3" d="M73.5,73.9H67c0.6-0.8,1-1.9,1-3V46.4h12.4c1.6,0,2.9-1.3,2.9-2.9v-9.8c0-1.6-1.3-2.9-2.9-2.9H68.1v-8
						c0-2.8-2.2-5-5-5H32.3c-2.8,0-5,2.2-5,5v24.5H14.5c-1.6,0-2.9,1.3-2.9,2.9v9.8c0,1.6,1.3,2.9,2.9,2.9h12.8v8c0,1.1,0.4,2.2,1,3
						h-17c-0.6,0-1,0.4-1,1s0.4,1,1,1c22.9,0,41.3,0,62.3,0c0.6,0,1-0.4,1-1S74.1,73.9,73.5,73.9z M81.4,33.7v9.8
						c0,0.5-0.4,0.9-0.9,0.9H56.8c-0.5,0-0.9-0.4-0.9-0.9v-1.6c0-1.1-0.7-2.2-1.7-2.7l-1.4-0.7l1.4-0.7c1-0.5,1.7-1.5,1.7-2.7v-1.6
						c0-0.5,0.4-0.9,0.9-0.9h23.7C81,32.7,81.4,33.2,81.4,33.7z M29.3,22.7c0-1.7,1.4-3,3-3h30.8c1.7,0,3,1.4,3,3v2.8H29.3V22.7z
						 M13.6,59.9v-9.8c0-0.5,0.4-0.9,0.9-0.9h23.7c0.5,0,0.9,0.4,0.9,0.9v1.6c0,1.1,0.7,2.2,1.7,2.7l1.4,0.7l-1.4,0.7
						c-1,0.5-1.7,1.5-1.7,2.7v1.6c0,0.5-0.4,0.9-0.9,0.9H14.5C14,60.8,13.6,60.4,13.6,59.9z M38.2,62.8c1.6,0,2.9-1.3,2.9-2.9v-1.6
						c0-0.4,0.2-0.7,0.5-0.8l2.2-1c0.6-0.3,0.9-0.8,0.9-1.5c0-0.6-0.4-1.2-0.9-1.5l-2.2-1c-0.3-0.2-0.5-0.5-0.5-0.8v-1.6
						c0-1.6-1.3-2.9-2.9-2.9h-9V27.5h36.8v3.2h-9.3c-1.6,0-2.9,1.3-2.9,2.9v1.6c0,0.4-0.2,0.7-0.5,0.8l-2.2,1
						c-0.6,0.3-0.9,0.8-0.9,1.5c0,0.6,0.4,1.2,0.9,1.5l2.2,1c0.3,0.2,0.5,0.5,0.5,0.8v1.6c0,1.6,1.3,2.9,2.9,2.9h9.3V66H29.3v-3.2
						H38.2z M32.3,73.9c-1.7,0-3-1.4-3-3V68h36.8v2.8c0,1.7-1.4,3-3,3H32.3z"/>
					<path class="st3" d="M92.5,73.9H80.7c-0.6,0-1,0.4-1,1s0.4,1,1,1h11.8c0.6,0,1-0.4,1-1S93.1,73.9,92.5,73.9z"/>
					<path class="st3" d="M47.7,69.3C46.7,69.3,46,70,46,71c0,0.9,0.8,1.7,1.7,1.7c0.9,0,1.7-0.8,1.7-1.7
						C49.4,70,48.6,69.3,47.7,69.3z"/>
					<path class="st3" d="M48.2,38.6c0-4.1-3.3-7.5-7.5-7.5c-4.1,0-7.5,3.3-7.5,7.5c0,4.1,3.3,7.5,7.5,7.5
						C44.8,46,48.2,42.7,48.2,38.6z M40.7,44c-3,0-5.5-2.5-5.5-5.5c0-3,2.5-5.5,5.5-5.5c3,0,5.5,2.5,5.5,5.5
						C46.2,41.6,43.7,44,40.7,44z"/>
					<path class="st3" d="M54.6,62.5c4.1,0,7.5-3.3,7.5-7.5c0-4.1-3.3-7.5-7.5-7.5c-4.1,0-7.5,3.3-7.5,7.5
						C47.1,59.1,50.5,62.5,54.6,62.5z M54.6,49.5c3,0,5.5,2.5,5.5,5.5c0,3-2.5,5.5-5.5,5.5c-3,0-5.5-2.5-5.5-5.5
						C49.1,52,51.6,49.5,54.6,49.5z"/>
				</g>
				<g>
					<g>
						<path class="st0" d="M16,57.2c0,0.5,0.4,0.8,0.8,0.8H36c0.5,0,0.8-0.4,0.8-0.8c0-0.5-0.4-0.8-0.8-0.8H16.8
							C16.3,56.3,16,56.7,16,57.2z"/>
					</g>
					<g>
						<g>
							<path class="st0" d="M16,52.8c0,0.5,0.4,0.8,0.8,0.8H36c0.5,0,0.8-0.4,0.8-0.8c0-0.5-0.4-0.8-0.8-0.8H16.8
								C16.3,52,16,52.4,16,52.8z"/>
						</g>
					</g>
				</g>
			</g>
		</g>
	</g>
</g>
</svg>
