<svg xmlns="http://www.w3.org/2000/svg" viewBox="0 0 267.96289 50.56006"><title>BlackPrimary</title><path d="M190.5249,30.11914a11.36727,11.36727,0,0,0-4.064-1.38086,33.81708,33.81708,0,0,0-5.34375-.38623h-9.21631V45.88818q.96021.12891,2.88037.28809,1.91968.1604,3.90381.15967a41.759,41.759,0,0,0,5.728-.38477,16.24221,16.24221,0,0,0,4.896-1.41309,8.80478,8.80478,0,0,0,3.39209-2.82617,7.79337,7.79337,0,0,0,1.27979-4.625,9.11321,9.11321,0,0,0-.896-4.271A6.76615,6.76615,0,0,0,190.5249,30.11914Z" fill="none"/><path d="M220.15625,19.52a8.69376,8.69376,0,0,0-4,.896,10.16836,10.16836,0,0,0-3.07178,2.3999,11.1327,11.1327,0,0,0-2.04785,3.48828,14.28278,14.28278,0,0,0-.86426,4.15967h18.94385q-.12891-5.18335-2.43164-8.064A7.88055,7.88055,0,0,0,220.15625,19.52Z" fill="none"/><path d="M184.8291,24.29a10.62263,10.62263,0,0,0,3.68018-1.2749,6.744,6.744,0,0,0,2.46387-2.48584,7.93778,7.93778,0,0,0,.896-3.98535,6.66053,6.66053,0,0,0-.96-3.665,7.27072,7.27072,0,0,0-2.72021-2.45361,13.492,13.492,0,0,0-4.19189-1.37012,32.1669,32.1669,0,0,0-5.376-.415q-2.36865,0-4,.12793-1.63184.12891-2.72021.31982V24.64014h8.44824A27.34437,27.34437,0,0,0,184.8291,24.29Z" fill="none"/><path d="M29.44043,45.69629a15.35583,15.35583,0,0,1-2.97607.67188,35.58554,35.58554,0,0,1-5.47217.35205,17.58338,17.58338,0,0,1-7.104-1.34424,13.64253,13.64253,0,0,1-5.15186-3.87207,16.71038,16.71038,0,0,1-3.104-6.08008A28.72735,28.72735,0,0,1,4.6084,27.45605a25.28271,25.28271,0,0,1,1.248-8.31982,17.546,17.546,0,0,1,3.42383-6.01611,13.93791,13.93791,0,0,1,5.12012-3.64795,16.27222,16.27222,0,0,1,6.272-1.21631,26.35919,26.35919,0,0,1,6.65576.80029,14.82219,14.82219,0,0,1,4.86426,2.08008l1.47168-3.7124A21.27676,21.27676,0,0,0,28.99219,5.4082a26.36759,26.36759,0,0,0-8.12793-1.05615,21.19388,21.19388,0,0,0-8.064,1.53613,19.37687,19.37687,0,0,0-6.624,4.44775,20.96159,20.96159,0,0,0-4.51221,7.23193A27.364,27.364,0,0,0,0,27.45605a29.436,29.436,0,0,0,1.53613,9.88818A20.47469,20.47469,0,0,0,5.792,44.57617a18.23051,18.23051,0,0,0,6.43213,4.44775,20.88066,20.88066,0,0,0,8.064,1.53613,40.54317,40.54317,0,0,0,8.73633-.7998,33.72421,33.72421,0,0,0,4.76758-1.312V28.67188H29.44043Z" fill="#555555"/><path d="M64.89551,45.63184a13.68332,13.68332,0,0,1-2.752.57617,35.6221,35.6221,0,0,1-5.12012.31982,12.919,12.919,0,0,1-4.44775-.67187,6.48975,6.48975,0,0,1-2.97607-2.17578,9.658,9.658,0,0,1-1.66406-3.936,29.38842,29.38842,0,0,1-.51221-5.95215V16.57617H43.26367V35.13623a26.7606,26.7606,0,0,0,.67188,6.208,12.4415,12.4415,0,0,0,2.208,4.7998,10.06929,10.06929,0,0,0,4.03223,3.07178,15.56134,15.56134,0,0,0,6.208,1.08838,39.2098,39.2098,0,0,0,7.67969-.64014q3.13477-.63867,4.99219-1.15186v-31.936H64.89551Z" fill="#555555"/><path d="M131.4541,34.72021a13.54845,13.54845,0,0,0-3.104-1.916q-1.76147-.79687-3.68018-1.561-1.85742-.76538-3.2959-1.40234a12.61366,12.61366,0,0,1-2.43213-1.37354,5.11013,5.11013,0,0,1-1.50391-1.7002,4.84258,4.84258,0,0,1-.51221-2.30908,4.23883,4.23883,0,0,1,.57617-2.27588,4.797,4.797,0,0,1,1.53613-1.53906,7.0433,7.0433,0,0,1,2.208-.89795,11.78811,11.78811,0,0,1,2.65576-.28906,17.04146,17.04146,0,0,1,5.34424.64014,25.04586,25.04586,0,0,1,2.5918,1.02393l.96-3.71191a17.80877,17.80877,0,0,0-3.104-1.02393,22.67979,22.67979,0,0,0-5.6001-.57617q-5.313,0-8.35205,2.49609a8.04075,8.04075,0,0,0-3.04,6.52783,7.67262,7.67262,0,0,0,.76807,3.584,8.08789,8.08789,0,0,0,2.04834,2.52783,14.38245,14.38245,0,0,0,2.94385,1.85645q1.66333.80054,3.52,1.56787,2.3042.96021,3.87207,1.66406a11.84665,11.84665,0,0,1,2.52783,1.47168,4.543,4.543,0,0,1,1.376,1.728,5.78428,5.78428,0,0,1,.416,2.3042,4.12987,4.12987,0,0,1-2.33594,4,13.049,13.049,0,0,1-5.91992,1.18408,20.91456,20.91456,0,0,1-3.48828-.25635,18.57672,18.57672,0,0,1-2.5918-.60791,17.07086,17.07086,0,0,1-1.728-.64014,6.97459,6.97459,0,0,1-.832-.41553l-1.08789,3.77588a25.7561,25.7561,0,0,0,3.07178,1.12012,23.0978,23.0978,0,0,0,6.65625.73584q5.82275,0,9.18408-2.3042a7.69667,7.69667,0,0,0,3.35986-6.78369,8.347,8.347,0,0,0-.832-3.936A8.89824,8.89824,0,0,0,131.4541,34.72021Z" fill="#555555"/><path d="M157.50146,45.98389a12.111,12.111,0,0,1-4.22412.6084,11.576,11.576,0,0,1-2.81592-.32031,4.35578,4.35578,0,0,1-2.17578-1.27979,6.37447,6.37447,0,0,1-1.376-2.72021,17.85578,17.85578,0,0,1-.48-4.57568V20.09619h13.18359v-3.52H146.42969V6.08008l-4.16016.76807V37.312a28.25942,28.25942,0,0,0,.51172,5.76025,9.97324,9.97324,0,0,0,1.76025,4.064,7.4418,7.4418,0,0,0,3.32813,2.43164,14.43767,14.43767,0,0,0,5.15186.80029,15.51141,15.51141,0,0,0,4.86377-.73633,15.00947,15.00947,0,0,0,3.13623-1.312l-1.02393-3.45557A18.36013,18.36013,0,0,1,157.50146,45.98389Z" fill="#555555"/><path d="M196.0293,29.44482a10.2939,10.2939,0,0,0-2.81641-2.147,15.01956,15.01956,0,0,0-3.52-1.28174,9.27783,9.27783,0,0,0,4.896-3.48291,10.13428,10.13428,0,0,0,1.82422-6.10205,9.78678,9.78678,0,0,0-1.43994-5.46387,10.71823,10.71823,0,0,0-3.87207-3.54736,18.333,18.333,0,0,0-5.66406-1.917,38.93364,38.93364,0,0,0-6.81592-.57471q-1.21655,0-2.65627.064-1.43991.06445-2.94383.22363-1.50439.16113-2.91211.38428a23.47936,23.47936,0,0,0-2.56006.54395V48.832q.96021.25635,2.3042.48,1.344.22485,2.84814.38428,1.50293.15894,2.94385.25586,1.43994.09595,2.52783.0957,10.43115,0,15.42432-3.2998a10.77741,10.77741,0,0,0,4.9917-9.58105,13.51967,13.51967,0,0,0-.67187-4.51807A9.19214,9.19214,0,0,0,196.0293,29.44482ZM171.90088,9.08789q1.08765-.19189,2.72021-.31982,1.63184-.12744,4-.12793a32.1669,32.1669,0,0,1,5.376.415,13.492,13.492,0,0,1,4.19189,1.37012,7.27072,7.27072,0,0,1,2.72021,2.45361,6.66053,6.66053,0,0,1,.96,3.665,7.93778,7.93778,0,0,1-.896,3.98535,6.744,6.744,0,0,1-2.46387,2.48584A10.62263,10.62263,0,0,1,184.8291,24.29a27.34437,27.34437,0,0,1-4.48.3501h-8.44824Zm20.80029,32.624a8.80478,8.80478,0,0,1-3.39209,2.82617,16.24221,16.24221,0,0,1-4.896,1.41309,41.759,41.759,0,0,1-5.728.38477q-1.98413,0-3.90381-.15967-1.92041-.15967-2.88037-.28809V28.35205h9.21631a33.81708,33.81708,0,0,1,5.34375.38623,11.36727,11.36727,0,0,1,4.064,1.38086,6.76615,6.76615,0,0,1,2.56006,2.69678,9.11321,9.11321,0,0,1,.896,4.271A7.79337,7.79337,0,0,1,192.70117,41.71191Z" fill="#10bdc7"/><path d="M227.38818,45.95215a18.10238,18.10238,0,0,1-5.376.64014q-6.14355,0-8.96-3.26416a11.67923,11.67923,0,0,1-2.35248-4.66394h-4.50623c.09943.46332.20477.92267.33087,1.368a14.16283,14.16283,0,0,0,2.87988,5.47168,13.28191,13.28191,0,0,0,5.05615,3.584,19.28514,19.28514,0,0,0,7.42383,1.28027,21.21032,21.21032,0,0,0,5.792-.7041,17.29876,17.29876,0,0,0,3.36035-1.21582l-.76807-3.584A22.43892,22.43892,0,0,1,227.38818,45.95215Z" fill="#10bdc7"/><path d="M247.93164,45.53613a3.33248,3.33248,0,0,1-.86377-1.47217,8.54067,8.54067,0,0,1-.28809-2.46387V0l-4.16016.76807v40.96a12.15085,12.15085,0,0,0,.54395,3.936,6.23761,6.23761,0,0,0,1.6001,2.56006,6.56543,6.56543,0,0,0,2.624,1.47217,14.11123,14.11123,0,0,0,3.68018.54395l.57568-3.45605a18.9182,18.9182,0,0,1-2.208-.44824A3.4937,3.4937,0,0,1,247.93164,45.53613Z" fill="#10bdc7"/><path d="M265.75488,46.33594a3.4937,3.4937,0,0,1-1.50391-.7998,3.33248,3.33248,0,0,1-.86377-1.47217,8.54067,8.54067,0,0,1-.28809-2.46387V0L258.939.76807v40.96a12.15085,12.15085,0,0,0,.54395,3.936,6.23761,6.23761,0,0,0,1.6001,2.56006,6.56543,6.56543,0,0,0,2.624,1.47217,14.11123,14.11123,0,0,0,3.68018.54395l.57568-3.45605A18.9182,18.9182,0,0,1,265.75488,46.33594Z" fill="#10bdc7"/><path d="M99.83838,45.95215a18.10238,18.10238,0,0,1-5.376.64014q-6.14355,0-8.96-3.26416A11.67923,11.67923,0,0,1,83.15,38.66418H78.64374c.09943.46332.20477.92267.33087,1.368a14.16283,14.16283,0,0,0,2.87988,5.47168,13.28191,13.28191,0,0,0,5.05615,3.584,19.28514,19.28514,0,0,0,7.42383,1.28027,21.21036,21.21036,0,0,0,5.792-.7041,17.29876,17.29876,0,0,0,3.36035-1.21582l-.76807-3.584A22.43892,22.43892,0,0,1,99.83838,45.95215Z" fill="#555555"/><path d="M102.23877,19.77588a11.63835,11.63835,0,0,0-2.424-2.01392,8.1396,8.1396,0,1,0-15.4306.72241,13.46892,13.46892,0,0,0-1.7934,1.61182,16.70977,16.70977,0,0,0-3.26416,5.40771,21.00863,21.00863,0,0,0-1.248,7.584c0,.30481.01837.59711.0271.896h27.62085q.063-.44678.09619-.96.03149-.51123.03174-1.02393Q105.85449,23.74414,102.23877,19.77588Zm-10.25867-9.04a4.8403,4.8403,0,1,1-4.84027,4.84033A4.84584,4.84584,0,0,1,91.9801,10.73584Zm-9.35754,19.728a14.28278,14.28278,0,0,1,.86426-4.15967,11.1327,11.1327,0,0,1,2.04785-3.48828,10.03092,10.03092,0,0,1,1.12146-1.091,8.11418,8.11418,0,0,0,11.23254-.56049,7.50405,7.50405,0,0,1,1.24609,1.23547q2.30347,2.87988,2.43164,8.064Z" fill="#555555"/><path d="M229.78857,19.77588a11.99784,11.99784,0,0,0-7.84-3.83917V10.95589h3.64931v-3.52H214.77922v3.52h3.64931V15.9353a13.96143,13.96143,0,0,0-3.68.929,12.84645,12.84645,0,0,0-4.60791,3.23193,16.70977,16.70977,0,0,0-3.26416,5.40771,21.00863,21.00863,0,0,0-1.248,7.584c0,.30481.01837.59711.0271.896h27.62085q.063-.44678.09619-.96.03149-.51123.03174-1.02393Q233.4043,23.74414,229.78857,19.77588Zm-19.61621,10.688a14.28278,14.28278,0,0,1,.86426-4.15967,11.1327,11.1327,0,0,1,2.04785-3.48828,10.16836,10.16836,0,0,1,3.07178-2.3999,8.69376,8.69376,0,0,1,4-.896,7.88055,7.88055,0,0,1,6.52832,2.87988q2.30347,2.87988,2.43164,8.064Z" fill="#10bdc7"/></svg>