<?xml version="1.0" encoding="utf-8"?>
<!-- Generator: Adobe Illustrator 21.0.0, SVG Export Plug-In . SVG Version: 6.00 Build 0)  -->
<svg version="1.1" id="Layer_1" xmlns="http://www.w3.org/2000/svg" xmlns:xlink="http://www.w3.org/1999/xlink" x="0px" y="0px"
	 viewBox="0 0 95 95" style="enable-background:new 0 0 95 95;" xml:space="preserve">
<style type="text/css">
	.st0{fill:#D0F7F7;}
	.st1{fill:#FFFFFF;}
	.st2{opacity:0.3;}
	.st3{fill:#10BDC7;}
</style>
<g>
	<g>
		<g>
			<path class="st0" d="M88.4,50.7c0,4.9-4.3,8.9-9,10.5c-4.7,1.6-9.8,1.5-14.7,2s-10.2,1.6-13.6,5.2c-2.2,2.3-3.4,5.4-5,8.3
				c-1.6,2.8-3.9,5.6-7.1,6.2c-3.5,0.7-7.1-1.5-9.2-4.4s-3-6.4-4-9.8s-2.2-6.9-4.6-9.5c-2.1-2.2-3.9-3.3-6.6-5
				c-2.8-1.8-4.4-2.9-6.2-5.4S6,42.6,8,40.3c2.4-3,5.8-2.6,9.6-2.9c7.3-0.6,12.9-4.9,16.5-11.1c1.4-2.3,2.3-7.6,3.8-9.8
				s3.7-4.2,6.4-4.5c3.8-0.4,7,2.6,9.6,5.3c5.1,5.2,9.9,14.5,16.5,18C77.1,38.7,88.4,41.6,88.4,50.7z"/>
		</g>
		<g>
			<path class="st0" d="M9.3,19.1c0,0.4-0.4,0.7-0.8,0.7l-1-0.1l-0.1,1c0,0.4-0.4,0.7-0.8,0.7S5.9,21,5.9,20.6l0.1-1l-1-0.1
				c-0.4,0-0.7-0.4-0.7-0.8S4.7,18,5.1,18l1,0.1l0.1-1c0-0.4,0.4-0.7,0.8-0.7s0.7,0.4,0.7,0.8l-0.1,1l1,0.1
				C9.1,18.4,9.4,18.7,9.3,19.1z"/>
		</g>
		<g>
			<path class="st0" d="M10.6,65.4c0,0.4-0.4,0.7-0.8,0.7l-1-0.1l-0.1,1c0,0.4-0.4,0.7-0.8,0.7c-0.4,0-0.7-0.4-0.7-0.8l0.1-1l-1-0.1
				c-0.4,0-0.7-0.4-0.7-0.8s0.4-0.7,0.8-0.7l1,0.1l0.1-1c0-0.4,0.4-0.7,0.8-0.7c0.4,0,0.7,0.4,0.7,0.8l-0.1,1l1,0.1
				C10.4,64.7,10.7,65,10.6,65.4z"/>
		</g>
		<g>
			<g>
				<g>
					<path class="st1" d="M72.5,26.3v45.3c0,1.9-1.5,3.4-3.4,3.4H21.9c-1.9,0-3.4-1.5-3.4-3.4V26.3c0-1.9,1.5-3.4,3.4-3.4h47.2
						C71,22.9,72.5,24.4,72.5,26.3z"/>
				</g>
				<g>
					<path class="st0" d="M72.5,26.3v45.3c0,1.9-1.5,3.4-3.4,3.4h-3.2c1.9,0,3.4-1.5,3.4-3.4V26.3c0-1.9-1.5-3.4-3.4-3.4h3.2
						C71,22.9,72.5,24.4,72.5,26.3z"/>
				</g>
				<g class="st2">
					<g>
						<g>
							<path class="st0" d="M72.5,54.2v17.4c0,1.9-1.5,3.4-3.4,3.4h-3.2c-2.6-2.2-4.2-5.4-4.2-9C61.6,59.8,66.4,54.7,72.5,54.2z"/>
						</g>
					</g>
				</g>
				<g>
					<g>
						<g>
							<path class="st0" d="M53.6,40.5v-2.8c0-0.5,0.4-0.9,0.9-0.9h2.8c0.5,0,0.9,0.4,0.9,0.9v2.8c0,0.5-0.4,0.9-0.9,0.9h-2.8
								C54,41.5,53.6,41.1,53.6,40.5z"/>
						</g>
						<g>
							<path class="st0" d="M31.8,40.5v-2.8c0-0.5,0.4-0.9,0.9-0.9h2.8c0.5,0,0.9,0.4,0.9,0.9v2.8c0,0.5-0.4,0.9-0.9,0.9h-2.8
								C32.2,41.5,31.8,41.1,31.8,40.5z"/>
						</g>
					</g>
					<g>
						<g>
							<path class="st0" d="M53.6,60.1v-2.8c0-0.5,0.4-0.9,0.9-0.9h2.8c0.5,0,0.9,0.4,0.9,0.9v2.8c0,0.5-0.4,0.9-0.9,0.9h-2.8
								C54,61.1,53.6,60.7,53.6,60.1z"/>
						</g>
						<g>
							<path class="st0" d="M31.8,60.1v-2.8c0-0.5,0.4-0.9,0.9-0.9h2.8c0.5,0,0.9,0.4,0.9,0.9v2.8c0,0.5-0.4,0.9-0.9,0.9h-2.8
								C32.2,61.1,31.8,60.7,31.8,60.1z"/>
						</g>
					</g>
				</g>
				<g>
					<g>
						<path class="st1" d="M78.5,41.4L78.5,41.4c0-1.7-1.4-3.1-3.1-3.1H15.6c-1.7,0-3.1,1.4-3.1,3.1l0,0c0,1.7,1.4,3.1,3.1,3.1h59.8
							C77.1,44.5,78.5,43.1,78.5,41.4z"/>
					</g>
					<g>
						<path class="st0" d="M78.5,41.4c0,1.7-1.4,3.1-3.1,3.1h-4.9c1.7,0,3.1-1.4,3.1-3.1c0-1.7-1.4-3.1-3.1-3.1h4.9
							C77.1,38.3,78.5,39.7,78.5,41.4z"/>
					</g>
				</g>
			</g>
			<g>
				<g>
					<path class="st1" d="M82.5,66c0,5-4,9-9,9s-9-4.1-9-9c0-5,4.1-9,9-9C78.5,56.9,82.5,61,82.5,66z"/>
				</g>
				<g>
					<path class="st0" d="M82.5,66c0,5-4,9-9,9c-0.4,0-0.9,0-1.3-0.1c4.4-0.6,7.7-4.4,7.7-8.9s-3.4-8.3-7.7-8.9
						c0.4-0.1,0.9-0.1,1.3-0.1C78.5,56.9,82.5,61,82.5,66z"/>
				</g>
				<g>
					<path class="st3" d="M88.1,22.3l-1-0.1l0.1-1c0-0.4-0.3-0.8-0.7-0.8c-0.4,0-0.8,0.3-0.8,0.7l-0.1,1l-1-0.1
						c-0.4,0-0.8,0.3-0.8,0.7c0,0.4,0.3,0.8,0.7,0.8l1,0.1l-0.1,1c0,0.4,0.3,0.8,0.7,0.8c0.4,0,0.8-0.3,0.8-0.7l0.1-1l1,0.1
						c0.4,0,0.8-0.3,0.8-0.7C88.8,22.7,88.5,22.3,88.1,22.3z"/>
					<path class="st3" d="M68.4,79.2l-1-0.1l0.1-1c0-0.4-0.3-0.8-0.7-0.8c-0.4,0-0.8,0.3-0.8,0.7l-0.1,1l-1-0.1
						c-0.4,0-0.8,0.3-0.8,0.7c0,0.4,0.3,0.8,0.7,0.8l1,0.1l-0.1,1c0,0.4,0.3,0.8,0.7,0.8c0.4,0,0.8-0.3,0.8-0.7l0.1-1l1,0.1
						c0.4,0,0.8-0.3,0.8-0.7C69.1,79.6,68.8,79.3,68.4,79.2z"/>
					<path class="st3" d="M4.9,74H2.5c-0.6,0-1,0.4-1,1s0.4,1,1,1h2.4c0.6,0,1-0.4,1-1S5.5,74,4.9,74z"/>
					<path class="st3" d="M83.6,74h-4.1c2.4-1.8,4-4.8,4-8c0-5.5-4.5-10-10-10V45.5h1.9c2.3,0,4.1-1.8,4.1-4.1s-1.8-4.1-4.1-4.1
						h-1.9v-11c0-2.4-2-4.4-4.4-4.4H21.9c-2.4,0-4.4,2-4.4,4.4v11h-1.9c-2.3,0-4.1,1.8-4.1,4.1s1.8,4.1,4.1,4.1h1.9v26.1
						c0,0.9,0.3,1.7,0.7,2.4h-7.6c-0.6,0-1,0.4-1,1s0.4,1,1,1c17.2,0,57.6,0,72.9,0c0.6,0,1-0.4,1-1S84.1,74,83.6,74z M81.5,66
						c0,4.4-3.6,8-8,8l0,0c-4.4,0-8-3.6-8-8c0-1.1,0.2-2.1,0.6-3.1c1.2-2.9,4.1-5,7.4-5C77.9,57.9,81.5,61.5,81.5,66z M19.5,26.3
						c0-1.3,1.1-2.4,2.4-2.4h47.2c1.3,0,2.4,1.1,2.4,2.4v11h-9.4v-2.2c0-1.1-0.9-2.1-2.1-2.1h-8.1c-1.1,0-2.1,0.9-2.1,2.1v2.2H47
						v-2.2c0-0.6-0.4-1-1-1s-1,0.4-1,1v2.2h-4.8v-2.2c0-1.1-0.9-2.1-2.1-2.1H30c-1.1,0-2.1,0.9-2.1,2.1v2.2h-8.5v-11H19.5z M60,37.3
						h-8.2V35H60c0,0,0.1,0,0.1,0.1L60,37.3z M38.2,37.3H30V35h8.1c0,0,0.1,0,0.1,0.1L38.2,37.3z M13.5,41.4c0-1.2,0.9-2.1,2.1-2.1
						h59.8c1.2,0,2.1,0.9,2.1,2.1c0,1.1-0.9,2.1-2.1,2.1H15.6C14.4,43.5,13.5,42.5,13.5,41.4z M42.2,45.5v1.9h-5.3c-0.6,0-1,0.4-1,1
						s0.4,1,1,1h6.3c0.6,0,1-0.4,1-1v-2.9h27.3v10.6l0,0c-4.6,0.9-8,5-8,9.8c0,0.8,0.1,1.6,0.3,2.4h-3.3c-0.5,0-1,0.4-1,1s0.5,1,1,1
						H64c0.2,0,0.3,0,0.5-0.1c0.7,1.5,1.8,2.8,3.1,3.7H21.9c-1.3,0-2.4-1.1-2.4-2.4v-26H42.2z"/>
					<path class="st3" d="M92.5,74h-1.9c-0.6,0-1,0.4-1,1s0.4,1,1,1h1.9c0.6,0,1-0.4,1-1S93.1,74,92.5,74z"/>
					<path class="st3" d="M29.6,29.5c0.6,0,1-0.4,1-1s-0.4-1-1-1h-3.5c-1.6,0-3,1.3-3,3V34c0,0.6,0.4,1,1,1s1-0.4,1-1v-3.5
						c0-0.5,0.4-1,1-1H29.6z"/>
					<path class="st3" d="M60.4,29.5h3.5c0.5,0,1,0.4,1,1V34c0,0.6,0.4,1,1,1s1-0.4,1-1v-3.5c0-1.6-1.3-3-3-3h-3.5c-0.6,0-1,0.4-1,1
						S59.9,29.5,60.4,29.5z"/>
					<path class="st3" d="M26.1,70.3h3.5c0.6,0,1-0.4,1-1s-0.4-1-1-1h-3.5c-0.5,0-1-0.4-1-1v-3.5c0-0.6-0.4-1-1-1s-1,0.4-1,1v3.5
						C23.2,69,24.5,70.3,26.1,70.3z"/>
					<path class="st3" d="M29,49.4h2c0.6,0,1-0.4,1-1s-0.4-1-1-1h-2c-0.6,0-1,0.4-1,1S28.4,49.4,29,49.4z"/>
					<path class="st3" d="M28,54.7v8.1c0,1.1,0.9,2.1,2.1,2.1h8.2c1.1,0,2.1-0.9,2.1-2.1v-8.1c0-1.1-0.9-2.1-2.1-2.1H30
						C28.9,52.6,28,53.5,28,54.7z M38.3,54.7l-0.1,8.2L30,62.8l0.1-8.2L38.3,54.7C38.2,54.6,38.3,54.6,38.3,54.7z"/>
					<path class="st3" d="M60,52.6h-8.1c-1.1,0-2.1,0.9-2.1,2.1v8.1c0,1.1,0.9,2.1,2.1,2.1H60c1.1,0,2.1-0.9,2.1-2.1v-8.1
						C62.1,53.5,61.1,52.6,60,52.6z M60,62.9l-8.2-0.1l0.1-8.2H60c0,0,0.1,0,0.1,0.1L60,62.9z"/>
					<path class="st3" d="M47.8,48.5h2.9v1.4c0,0.6,0.4,1,1,1h3.8c0.6,0,1-0.4,1-1s-0.4-1-1-1h-2.8v-1.4c0-0.6-0.4-1-1-1h-3.9
						c-0.6,0-1,0.4-1,1S47.2,48.5,47.8,48.5z"/>
					<path class="st3" d="M43.4,64.9c0.6,0,1-0.4,1-1v-2.8h2.3c0.6,0,1-0.4,1-1v-3.9c0-0.6-0.4-1-1-1s-1,0.4-1,1v2.9h-2.3
						c-0.6,0-1,0.4-1,1v3.8C42.4,64.4,42.8,64.9,43.4,64.9z"/>
					<path class="st3" d="M59.1,49.4h2c0.6,0,1-0.4,1-1s-0.4-1-1-1h-2c-0.6,0-1,0.4-1,1S58.5,49.4,59.1,49.4z"/>
					<path class="st3" d="M70.1,65.3c-0.4-0.4-1-0.4-1.4,0s-0.4,1,0,1.4l2.7,2.7c0.4,0.4,1,0.4,1.4,0l5.5-5.5c0.4-0.4,0.4-1,0-1.4
						s-1-0.4-1.4,0l-4.8,4.8L70.1,65.3z"/>
				</g>
			</g>
		</g>
	</g>
</g>
</svg>
