<?xml version="1.0" encoding="utf-8"?>
<!-- Generator: Adobe Illustrator 21.0.0, SVG Export Plug-In . SVG Version: 6.00 Build 0)  -->
<svg version="1.1" id="Layer_1" xmlns="http://www.w3.org/2000/svg" xmlns:xlink="http://www.w3.org/1999/xlink" x="0px" y="0px"
	 viewBox="0 0 95 95" style="enable-background:new 0 0 95 95;" xml:space="preserve">
<style type="text/css">
	.st0{fill:#D0F7F7;}
	.st1{fill:#FFFFFF;}
	.st2{fill:#10BDC7;}
</style>
<title>CancelAnytime</title>
<path class="st0" d="M82.6,81.7c-3.7,2-8.3,0.1-11.5-2.6S64,71.4,60.7,68.9c-5.7-4.1-13.3-4.4-19.4-0.8c-3.5,2.1-6.1,5.4-8.9,8.4
	s-6.1,5.8-10.1,6.5c-4.9,0.8-9.9-1.4-12.6-5.6c-2.6-4.2-3.3-9.3-1.8-14c1.6-4.6,4.7-8.6,8.8-11.3c3.5-2.4,8-4.6,8.6-8.7
	c0.5-3.6-2-6.2-3.4-9.3c-1.4-3-2.3-6.3-2.7-9.6c-0.3-2.4-0.3-4.9,0.9-6.9c2.1-3.5,7.4-4.1,11-2s5.7,6,7,9.9c0.4,1.5,1,2.9,1.7,4.3
	c0.7,1.4,2,2.4,3.5,2.8c1.7,0.2,3.3-0.4,4.5-1.6c1.9-1.9,2.6-4.8,3.9-7.2c1.4-2.7,3.3-5.1,5.4-7.3c2.9-2.9,6.9-4.6,11-4.6
	c4.1,0.1,8.2,2.6,9.6,6.4s0,8-2.2,11.4s-5.2,6.2-7.4,9.5c-2.3,3.3-3.8,7.5-2.7,11.3c1.7,3.1,4.9,4.1,8.6,7.1s9.2,7.3,11.3,11.5
	C87.5,73.4,86.8,79.4,82.6,81.7z"/>
<path class="st0" d="M7.7,50.5c0,0.4-0.4,0.7-0.8,0.7H5.8v1.1C5.8,52.7,5.4,53,5,53c-0.4,0-0.7-0.3-0.7-0.7c0,0,0-0.1,0-0.1v-1.1
	H3.2c-0.4,0-0.7-0.4-0.7-0.8c0-0.4,0.3-0.7,0.7-0.7c0,0,0.1,0,0.1,0h1.1v-1.1c0-0.4,0.4-0.7,0.8-0.7c0.4,0,0.7,0.4,0.7,0.8
	c0,0,0,0,0,0v1.1H7C7.4,49.7,7.7,50,7.7,50.5z"/>
<path class="st0" d="M43.1,80.7c0,0.4-0.4,0.7-0.8,0.7h-1.1v1.1c0,0.4-0.4,0.7-0.8,0.7c-0.4,0-0.7-0.3-0.7-0.7c0,0,0-0.1,0-0.1v-1.1
	h-1.1c-0.4,0-0.7-0.4-0.7-0.8c0-0.4,0.3-0.7,0.7-0.7c0,0,0.1,0,0.1,0h1.1v-1.1c0-0.4,0.4-0.7,0.8-0.7c0.4,0,0.7,0.4,0.7,0.8v1.1h1.1
	C42.8,79.9,43.1,80.2,43.1,80.7z"/>
<path class="st1" d="M51.3,66.2l14.5-6.5c1.5-0.7,3.3,0,4,1.5l0,0c0.7,1.4,0.1,3.2-1.3,3.9c0,0-0.1,0-0.1,0l-15.2,7.7
	c-2.7,1.4-5.7,2.1-8.7,2.1l0,0c-2.3,0-4.6-0.4-6.8-1.2L28.2,70V57h0.9c2.4,0,4.7,0.6,6.7,1.8l0,0c2,1.2,4.3,1.8,6.7,1.8h7.1
	c1.7,0,3.1,1.4,3.1,3.1l0,0c0,1.7-1.4,3.1-3.1,3.1H39"/>
<path class="st0" d="M28.2,57v13l9.6,3.6c2.2,0.8,4.5,1.2,6.8,1.2c0.5,0,0.9,0,1.4-0.1c-1.8-0.1-3.6-0.5-5.3-1.2L31.1,70V57.1
	c-0.7-0.1-1.3-0.2-2-0.2h-0.9V57z"/>
<path class="st1" d="M17.2,53.5h9.7c0.6,0,1.2,0.5,1.2,1.1c0,0,0,0.1,0,0.1v17.4c0,0.6-0.5,1.2-1.1,1.2c0,0-0.1,0-0.1,0h-9.7
	c-0.6,0-1.2-0.5-1.2-1.1c0,0,0-0.1,0-0.1V54.7C16,54,16.5,53.5,17.2,53.5z"/>
<path class="st0" d="M16,54.7v17.4c0,0.6,0.5,1.2,1.1,1.2c0,0,0.1,0,0.1,0h2.5c-0.7,0-1.2-0.5-1.2-1.2V54.7c0-0.6,0.5-1.2,1.1-1.2
	c0,0,0.1,0,0.1,0h-2.5C16.6,53.4,16,53.9,16,54.7C16,54.6,16,54.6,16,54.7z"/>
<path class="st1" d="M43.7,23.2l-14.5,6.5c-1.5,0.7-3.3,0-4-1.5l0,0c-0.7-1.4-0.1-3.2,1.3-3.9c0,0,0.1,0,0.1,0l15.2-7.7
	c2.7-1.4,5.7-2.1,8.7-2.1l0,0c2.3,0,4.6,0.4,6.8,1.2l9.6,3.6v13H66c-2.4,0-4.7-0.6-6.7-1.8l0,0c-2-1.2-4.3-1.8-6.7-1.8h-7.1
	c-1.7,0-3.1-1.4-3.1-3.1l0,0c0-1.7,1.4-3.1,3.1-3.1H56"/>
<path class="st0" d="M66.8,32.4v-13l-9.6-3.6c-2.2-0.8-4.5-1.2-6.8-1.2c-0.5,0-0.9,0-1.4,0.1c1.8,0.1,3.6,0.5,5.3,1.2l9.6,3.6v12.9
	c0.7,0.1,1.3,0.2,2,0.2h0.9V32.4z"/>
<path class="st1" d="M77.8,35.9h-9.7c-0.6,0-1.2-0.5-1.2-1.1c0,0,0-0.1,0-0.1V17.3c0-0.6,0.5-1.2,1.1-1.2c0,0,0.1,0,0.1,0h9.7
	c0.6,0,1.2,0.5,1.2,1.1c0,0,0,0.1,0,0.1v17.4C79,35.3,78.5,35.8,77.8,35.9z"/>
<path class="st0" d="M79,34.7V17.3c0-0.6-0.5-1.2-1.1-1.2c0,0-0.1,0-0.1,0h-2.5c0.7,0,1.2,0.5,1.2,1.2v17.4c0,0.6-0.5,1.2-1.1,1.2
	c0,0-0.1,0-0.1,0h2.5C78.4,35.9,79,35.4,79,34.7C79,34.7,79,34.7,79,34.7z"/>
<path class="st1" d="M54.1,43.9c-0.1,4.6-3.8,8.3-8.4,8.2c-4.6-0.1-8.3-3.8-8.2-8.4c0.1-4.6,3.8-8.3,8.4-8.2c4.5,0,8.2,3.6,8.2,8.1
	C54.1,43.7,54.1,43.8,54.1,43.9z"/>
<path class="st0" d="M54.1,43.9c-0.1,4.6-3.8,8.2-8.4,8.2c-0.4,0-0.8,0-1.2-0.1c4.5-0.6,7.7-4.8,7.1-9.3c-0.5-3.6-3.3-6.5-6.9-7.1
	c0.4,0,0.8-0.1,1.2-0.1c4.5,0,8.2,3.6,8.2,8.1C54.1,43.7,54.1,43.8,54.1,43.9z"/>
<path class="st2" d="M7,19.2l-1-0.1l0.1-1c0-0.4-0.3-0.8-0.7-0.8c-0.4,0-0.8,0.3-0.8,0.7c0,0,0,0,0,0l-0.1,1l-1-0.1
	c-0.4,0-0.8,0.3-0.8,0.7c0,0.4,0.3,0.7,0.7,0.8l1,0.1l-0.1,1c0,0.4,0.3,0.8,0.7,0.8c0.4,0,0.8-0.3,0.8-0.7c0,0,0,0,0,0l0.1-1l1,0.1
	c0.4,0,0.8-0.3,0.8-0.7C7.7,19.6,7.4,19.2,7,19.2z"/>
<path class="st2" d="M84.2,21.5c0,0.4,0.3,0.8,0.7,0.8s0.8-0.3,0.8-0.7c0,0,0,0,0,0v-1.1h1.1c0.4,0,0.8-0.3,0.8-0.7
	c0-0.4-0.3-0.7-0.7-0.8h-1.1v-1.1c0-0.4-0.3-0.8-0.7-0.8s-0.8,0.3-0.8,0.7c0,0,0,0,0,0v1.1h-1.1c-0.4,0-0.8,0.3-0.8,0.7
	c0,0.4,0.3,0.7,0.7,0.8h1.1V21.5z"/>
<path class="st2" d="M5.2,73.8H2.5c-0.6,0-1,0.4-1,1s0.4,1,1,1h2.7c0.5,0,1-0.4,1-0.9c0,0,0-0.1,0-0.1C6.2,74.2,5.7,73.8,5.2,73.8z"
	/>
<path class="st2" d="M74.3,73.9H53.4c0.1,0,0.2-0.1,0.3-0.1l15.2-7.7c1.9-1,2.7-3.3,1.9-5.3c-0.9-2-3.3-2.9-5.3-2l-11.8,5.3v-0.4
	c0-2.2-1.8-4.1-4-4.1c0,0-0.1,0-0.1,0h-7.1c-2.2,0-4.3-0.6-6.2-1.6c-2.2-1.2-4.6-1.9-7.1-1.9v-1.3c0-1.2-1-2.2-2.2-2.2h-9.7
	c-1.2,0-2.2,1-2.2,2.2v17.4c0,0.7,0.4,1.4,0.9,1.8h-3.6c-0.6,0-1,0.4-1,1s0.4,1,1,1h61.9c0.5,0,1-0.4,1-0.9c0,0,0-0.1,0-0.1
	c0.1-0.5-0.3-1-0.8-1.1C74.4,73.9,74.4,73.9,74.3,73.9z M29.2,58c2.1,0,4.3,0.6,6.1,1.7c2.2,1.3,4.7,1.9,7.2,1.9h7.1
	c1.2,0,2.1,0.9,2.1,2.1c0,0.7-0.3,1.3-0.9,1.7h-0.1c-0.3,0.2-0.7,0.3-1.1,0.3H39c-0.6,0-1,0.4-1,1s0.4,1,1,1h10.5
	c0.8,0,1.6-0.2,2.2-0.7l14.4-6.4c0.9-0.5,2.1-0.1,2.5,0.9c0,0,0,0.1,0.1,0.1c0.4,1,0,2.1-0.9,2.6l-15.2,7.7
	c-4.6,2.3-9.9,2.6-14.7,0.8l-9-3.4V58H29.2z M17,54.7c0-0.1,0.1-0.2,0.2-0.2h9.7c0.1,0,0.2,0.1,0.2,0.2v17.4c0,0.1-0.1,0.2-0.2,0.2
	h-9.7c-0.1,0-0.2-0.1-0.2-0.2V54.7z M29.2,72.1v-0.6l6.3,2.4h-7.2C28.8,73.4,29.2,72.7,29.2,72.1z"/>
<path class="st2" d="M92.5,73.9h-8.2c-0.6,0-1,0.4-1,1s0.4,1,1,1h8.2c0.5,0,1-0.4,1-0.9c0,0,0-0.1,0-0.1
	C93.5,74.3,93.1,73.9,92.5,73.9z"/>
<path class="st2" d="M22.1,60.8c1.2,0,2.1-0.9,2.1-2.1c0-1.1-0.9-2.1-2-2.1c0,0-0.1,0-0.1,0c-1.2,0-2.1,0.9-2.1,2.1
	C20,59.8,20.9,60.7,22.1,60.8C22,60.8,22.1,60.8,22.1,60.8z"/>
<path class="st2" d="M77.8,15.1h-9.7c-1.2,0-2.2,1-2.2,2.2v0.6l-8.3-3.1c-5.3-2-11.2-1.7-16.3,0.9l-15.2,7.7c-1.9,1-2.7,3.3-1.9,5.3
	c0.9,2,3.3,2.9,5.3,2l11.8-5.3v0.4c0,2.2,1.8,4.1,4,4.1c0,0,0.1,0,0.1,0h7.1c2.2,0,4.3,0.6,6.2,1.6c2.2,1.2,4.6,1.9,7.1,1.9v1.3
	c0,1.2,1,2.2,2.2,2.2h9.7c1.2,0,2.2-1,2.2-2.2V17.3c0.1-1.1-0.8-2.1-1.9-2.2C77.9,15.1,77.9,15.1,77.8,15.1z M65.8,31.4
	c-2.1,0-4.3-0.6-6.1-1.7c-2.2-1.3-4.7-1.9-7.2-1.9h-7.1c-1.2,0-2.1-0.9-2.1-2.1c0-0.7,0.3-1.3,0.9-1.7h0.1c0.3-0.2,0.7-0.3,1.1-0.3
	H56c0.6,0,1-0.4,1-1s-0.4-1-1-1H45.4c-0.8,0-1.6,0.2-2.2,0.7l-14.4,6.4c-1,0.4-2.2,0-2.6-1c-0.4-1,0-2.1,0.9-2.6l15.2-7.7
	c4.6-2.3,9.9-2.6,14.7-0.8l9,3.4v11.3H65.8z M78,34.7c0,0.1-0.1,0.2-0.2,0.2h-9.7c-0.1,0-0.2-0.1-0.2-0.2V17.3
	c0-0.1,0.1-0.2,0.2-0.2h9.7c0.1,0,0.2,0.1,0.2,0.2L78,34.7z"/>
<path class="st2" d="M72.9,28.5c-1.2,0-2.1,0.9-2.1,2.1c0,1.1,0.9,2.1,2,2.1c0,0,0.1,0,0.1,0c1.2,0,2.1-0.9,2.1-2.1
	C75,29.4,74.1,28.5,72.9,28.5C73,28.5,72.9,28.5,72.9,28.5z"/>
<path class="st2" d="M46,34.5c-5.1-0.1-9.4,4-9.5,9.1c0,2.5,0.9,4.8,2.6,6.6c1.8,1.8,4.2,2.8,6.7,2.8c5.1,0,9.3-4.1,9.3-9.2
	C55.1,38.7,51,34.6,46,34.5z M45.7,51.1c-1.9,0-3.8-0.8-5.1-2.2c-1.4-1.4-2.1-3.3-2-5.2c0.1-4,3.3-7.2,7.3-7.2H46
	c1.9,0,3.8,0.8,5.1,2.2c1.4,1.4,2.1,3.3,2,5.2C53,47.9,49.7,51.1,45.7,51.1z"/>
<path class="st2" d="M47.6,43.7c-0.4-0.2-0.9-0.3-1.3-0.4l-0.2-0.1v-2.9h0.3c0.5,0,1,0.1,1.5,0.3c0.1,0,0.2,0.1,0.3,0.1
	s0.2,0,0.3-0.2c0.1-0.1,0.1-0.2,0.1-0.4c0-0.3-0.1-0.4-0.4-0.5c-0.6-0.2-1.2-0.4-1.9-0.4H46v-0.9c0-0.1,0-0.2-0.1-0.2
	C45.8,38,45.8,38,45.7,38s-0.2,0-0.2,0.1c-0.1,0.1-0.1,0.1-0.1,0.2v0.9h-0.3c-0.4,0.1-0.9,0.2-1.3,0.4c-0.4,0.2-0.8,0.5-1,0.9
	c-0.2,0.4-0.3,0.8-0.3,1.2c0,0.5,0.1,0.9,0.4,1.3c0.3,0.3,0.6,0.6,1,0.7c0.4,0.2,0.9,0.3,1.3,0.4l0.2,0.1V47c-0.8,0-1.5-0.2-2.2-0.5
	c-0.1,0-0.1,0-0.2-0.1c-0.2,0-0.3,0.1-0.4,0.2c-0.1,0.1-0.1,0.2-0.1,0.4c0,0.1,0,0.2,0.1,0.3c0.1,0.1,0.2,0.2,0.3,0.2
	c0.8,0.3,1.6,0.5,2.4,0.6h0.3V49c0,0.1,0,0.2,0.1,0.2c0.1,0.1,0.1,0.1,0.2,0.1s0.2,0,0.2-0.1c0.1-0.1,0.1-0.1,0.1-0.2v-0.9
	c0.5,0,1-0.1,1.5-0.4c0.8-0.3,1.4-1.1,1.4-2c0-0.5-0.1-0.9-0.4-1.3C48.3,44.2,48,43.9,47.6,43.7z M45.5,43.1L45.2,43
	c-0.3-0.1-0.6-0.2-0.9-0.4c-0.3-0.2-0.4-0.5-0.4-0.8c0-0.4,0.2-0.7,0.5-0.9c0.3-0.2,0.6-0.3,0.9-0.4l0.3-0.1L45.5,43.1z M46.5,47.1
	h-0.3v-2.7l0.4,0.1c0.3,0.1,0.6,0.2,0.9,0.4c0.3,0.1,0.4,0.4,0.4,0.7C47.9,46.5,47.4,46.9,46.5,47.1z"/>
<path class="st2" d="M64.3,37h-8.5c-0.5,0-1,0.4-1,0.9c0,0,0,0.1,0,0.1c0,0.6,0.4,1,1,1h8.5c0.6,0,1-0.4,1-1
	C65.3,37.4,64.8,37,64.3,37z"/>
<path class="st2" d="M36,37h-8.5c-0.5,0-1,0.4-1,0.9c0,0,0,0.1,0,0.1c0,0.6,0.4,1,1,1H36c0.6,0,1-0.4,1-1C37,37.4,36.5,37,36,37z"/>
<path class="st2" d="M20.4,46.7h12.9c0.5,0,1-0.4,1-0.9c0,0,0-0.1,0-0.1c0-0.6-0.4-1-1-1H20.4c-0.6,0-1,0.4-1,1
	C19.4,46.2,19.9,46.6,20.4,46.7z"/>
<path class="st2" d="M24.4,42.8H32c0.5,0,1-0.4,1-0.9c0,0,0-0.1,0-0.1c0-0.6-0.4-1-1-1h-7.6c-0.6,0-1,0.4-1,1S23.8,42.8,24.4,42.8z"
	/>
<path class="st2" d="M25.4,48.5c-0.5,0-1,0.4-1,0.9c0,0,0,0.1,0,0.1c0,0.6,0.4,1,1,1h8.4c0.6,0,1-0.4,1-1c0-0.5-0.4-1-0.9-1
	c0,0-0.1,0-0.1,0H25.4z"/>
<path class="st2" d="M57.9,48.5c-0.6,0-1,0.4-1,1c0,0.5,0.5,1,1,1h8.4c0.5,0,1-0.5,1-1c0-0.6-0.4-1-1-1H57.9z"/>
<path class="st2" d="M72.3,45.7c0-0.5-0.5-1-1-1H58.4c-0.5,0-1,0.5-1,1c0,0.6,0.4,1,1,1h12.9C71.9,46.7,72.3,46.2,72.3,45.7z"/>
<path class="st2" d="M67.3,40.8h-7.6c-0.6,0-1,0.4-1,1c0,0.5,0.4,1,0.9,1c0,0,0.1,0,0.1,0h7.6c0.6,0,1-0.4,1-1S67.9,40.8,67.3,40.8z
	"/>
</svg>
