<?xml version="1.0" encoding="utf-8"?>
<!-- Generator: Adobe Illustrator 22.0.1, SVG Export Plug-In . SVG Version: 6.00 Build 0)  -->
<svg version="1.1" id="Layer_1" xmlns="http://www.w3.org/2000/svg" xmlns:xlink="http://www.w3.org/1999/xlink" x="0px" y="0px"
	 viewBox="0 0 95 95" style="enable-background:new 0 0 95 95;" xml:space="preserve">
<style type="text/css">
	.st0{fill:#D0F7F7;}
	.st1{fill:#FFFFFF;}
	.st2{opacity:0.3;}
	.st3{fill:#D0F7F7;}
	.st4{fill:#10bdc7;}
	.st5{opacity:0.5;}
	.st6{fill:#E8EFF8;}
</style>
<g>
	<g>
		<g>
			<path class="st0" d="M83,36.2c-4.3,2.9-9.3,4.6-13.5,7.6c-4.2,3.1-7.5,8.3-5.9,13.3c1,3.4,4,5.7,5.5,8.9
				c1.9,4.2,0.8,9.5-2.4,12.9c-3.2,3.3-8.2,4.7-12.7,3.9c-4.6-0.8-8.6-3.7-11.3-7.4c-1.8-2.5-3-5.4-4.8-7.9
				c-1.7-2.5-4.2-4.8-7.3-5.3c-5.9-0.8-11,5.5-17,5.1C9.8,67,6.6,63.7,5.8,60c-0.8-3.7,0.5-7.7,3-10.6c2.5-2.9,6-4.8,9.7-5.8
				c2.5-0.7,5.1-1.1,7.6-2c2.5-0.9,4.8-2.4,6.1-4.7c3-5.8-2.3-13.1,0-19.1c1.3-3.5,5.2-5.7,8.9-5.6c3.7,0.1,7.3,2.1,9.6,5
				c1.4,1.7,3.2,8.7,4.9,9.3c2,0.6,8.5-5.9,10.3-7.1c4.1-2.6,8.8-4.6,13.6-4.3c4.8,0.4,9.6,3.7,10.5,8.4C91,28.4,87.3,33.3,83,36.2z
				"/>
		</g>
		<g>
			<path class="st3" d="M90.8,63.5c0,0.4-0.4,0.7-0.8,0.7l-1.1,0l0,1.1c0,0.4-0.4,0.7-0.8,0.7c-0.4,0-0.7-0.3-0.7-0.8l0-1.1l-1.1,0
				c-0.4,0-0.7-0.4-0.7-0.8c0-0.4,0.3-0.7,0.8-0.7l1.1,0l0-1.1c0-0.4,0.4-0.7,0.8-0.7c0.4,0,0.7,0.4,0.7,0.8l0,1.1l1.1,0
				C90.5,62.8,90.8,63.1,90.8,63.5z"/>
		</g>
		<g>
			<path class="st0" d="M8.5,39.3c0,0.4-0.4,0.7-0.8,0.7l-1.1,0l0,1.1c0,0.4-0.4,0.7-0.8,0.7c-0.4,0-0.7-0.3-0.7-0.8l0-1.1l-1.1,0
				c-0.4,0-0.7-0.4-0.7-0.8c0-0.4,0.3-0.7,0.8-0.7l1.1,0l0-1.1c0-0.4,0.4-0.7,0.8-0.7c0.4,0,0.7,0.4,0.7,0.8l0,1.1l1.1,0
				C8.1,38.6,8.5,38.9,8.5,39.3z"/>
		</g>
		<g>
			<rect x="72.3" y="50" class="st0" width="3" height="24.9"/>
		</g>
		<g>
			<path class="st0" d="M80,46.8c0,1.8-1.4,3.2-3.2,3.2h-5.4c1.8,0,3.2-1.4,3.2-3.2c0-1.8-1.4-3.2-3.2-3.2h5.4
				C78.5,43.6,80,45,80,46.8z"/>
		</g>
		<g>
			<g>
				<rect x="20.4" y="50.7" class="st1" width="54.2" height="24.2"/>
			</g>
			<g>
				<path class="st1" d="M79.1,47.6L79.1,47.6c0-1.7-1.4-3.1-3.1-3.1H19c-1.7,0-3.1,1.4-3.1,3.1v0c0,1.7,1.4,3.1,3.1,3.1h57
					C77.7,50.7,79.1,49.3,79.1,47.6z"/>
			</g>
			<g>
				<g>
					<g>
						<g>
							<path class="st1" d="M70.2,36.9l-0.7,7.5H39.2l0-7.5c0-1.1,0.3-2.1,0.9-2.9c0.9-1.2,2.3-2,3.9-2h21.2
								C68,32,70.2,34.2,70.2,36.9z"/>
						</g>
						<g>
							<path class="st0" d="M70.2,36.9v7.5h-3.5v-7.5c0-2.7-0.9-4.9-3.6-4.9h2.3C68,32,70.2,34.2,70.2,36.9z"/>
						</g>
					</g>
					<g>
						<path class="st1" d="M58,28.9V32l-3.3,2.4L51.3,32v-3.1c1,0.4,2,0.6,3.2,0.6h0.3C55.9,29.5,57,29.3,58,28.9z"/>
					</g>
					<g>
						<g>
							<g>
								<path class="st1" d="M51.3,29.3L47.6,32c0.2,2.5,2,4.7,4.2,5.9c0.3,0.2,0.7,0.1,0.9-0.2l1.9-3.3
									C52.9,33.1,51.6,31.5,51.3,29.3z"/>
							</g>
						</g>
						<g>
							<path class="st0" d="M54.7,34.4l-1.9,3.3c-0.2,0.3-0.5,0.4-0.8,0.3l1.5-2.6c-1.8-1.3-3-2.9-3.3-5.1l-2.5,1.8c0,0,0-0.1,0-0.1
								l3.7-2.7C51.6,31.5,52.9,33.1,54.7,34.4z"/>
						</g>
						<g>
							<g>
								<path class="st1" d="M58,29.3l3.7,2.7c-0.2,2.5-2,4.7-4.2,5.9c-0.3,0.2-0.7,0.1-0.9-0.2l-1.9-3.3
									C56.4,33.1,57.7,31.5,58,29.3z"/>
							</g>
						</g>
						<g>
							<path class="st0" d="M61.7,32c-0.2,2.5-2,4.7-4.2,5.9c-0.3,0.2-0.7,0.1-0.9-0.2L56.2,37c2.2-1.3,3.9-3.5,4.2-5.9L58,29.3
								c0,0,0,0,0,0L61.7,32z"/>
						</g>
					</g>
					<g>
						<g>
							<path class="st0" d="M56.1,40.5c0,0.8-0.6,1.4-1.4,1.4c-0.8,0-1.4-0.6-1.4-1.4c0-0.8,0.6-1.4,1.4-1.4
								C55.4,39.1,56.1,39.7,56.1,40.5z"/>
						</g>
					</g>
				</g>
			</g>
			<g>
				<g>
					<path class="st1" d="M61.6,22.7c0,3.8-3.1,6.9-7,6.9c-3.8,0-7-3.1-7-6.9s3.1-6.9,7-6.9C58.5,15.8,61.6,18.9,61.6,22.7z"/>
				</g>
				<g>
					<path class="st0" d="M61.6,22.7c0,3.8-3.1,6.9-7,6.9c-0.5,0-0.9,0-1.3-0.1c3.2-0.6,5.6-3.4,5.6-6.8s-2.4-6.2-5.6-6.8
						c0.4-0.1,0.9-0.1,1.3-0.1C58.5,15.8,61.6,18.9,61.6,22.7z"/>
				</g>
			</g>
			<g>
				<path class="st1" d="M32.9,44.4c0-2.5-2.1-4.5-4.5-4.5c-2.5,0-4.5,2-4.5,4.5H32.9z"/>
			</g>
		</g>
		<g>
			<path class="st4" d="M10.3,21.7l-1.1,0l0-1.1c0-0.4-0.3-0.7-0.7-0.8c-0.4,0-0.7,0.3-0.8,0.7l0,1.1l-1.1,0c-0.4,0-0.7,0.3-0.8,0.7
				c0,0.4,0.3,0.7,0.7,0.8l1.1,0l0,1.1c0,0.4,0.3,0.7,0.7,0.8c0.4,0,0.7-0.3,0.8-0.7l0-1.1l1.1,0c0.4,0,0.7-0.3,0.8-0.7
				C11,22,10.7,21.7,10.3,21.7z"/>
			<path class="st4" d="M81.8,23.1l-1.1,0l0-1.1c0-0.4-0.3-0.7-0.7-0.8c-0.4,0-0.7,0.3-0.8,0.7l0,1.1l-1.1,0c-0.4,0-0.7,0.3-0.8,0.7
				c0,0.4,0.3,0.7,0.7,0.8l1.1,0l0,1.1c0,0.4,0.3,0.7,0.7,0.8c0.4,0,0.7-0.3,0.8-0.7l0-1.1l1.1,0c0.4,0,0.7-0.3,0.8-0.7
				C82.5,23.5,82.2,23.1,81.8,23.1z"/>
			<path class="st4" d="M7.4,73.9H2.5c-0.6,0-1,0.4-1,1s0.4,1,1,1h4.9c0.6,0,1-0.4,1-1S7.9,73.9,7.4,73.9z"/>
			<path class="st4" d="M80.7,73.9h-5.1V51.7H76c2.3,0,4.1-1.9,4.1-4.1s-1.9-4.1-4.1-4.1h-4.8v-6.5c0-3.2-2.6-5.9-5.9-5.9h-3.2
				l-2.7-1.9c2-1.4,3.2-3.8,3.2-6.4c0-4.4-3.6-7.9-8-7.9s-8,3.6-8,7.9c0,2.6,1.3,4.9,3.2,6.4L47.3,31H44c-3.2,0-5.9,2.6-5.9,5.9v6.5
				h-4.4c-0.4-2.2-2.2-4-4.4-4.4v-1.3c0-0.6-0.4-1-1-1s-1,0.4-1,1V39c-2.2,0.4-4,2.2-4.4,4.4H19c-2.3,0-4.1,1.9-4.1,4.1
				s1.9,4.1,4.1,4.1h0.4v22.3h-4.2c-0.6,0-1,0.4-1,1s0.4,1,1,1h65.5c0.6,0,1-0.4,1-1S81.3,73.9,80.7,73.9z M60.6,32.4
				c-0.4,1.7-1.6,3.4-3.3,4.5L56,34.7c1.3-1.1,2.2-2.3,2.6-3.7L60.6,32.4z M48.7,22.7c0-3.3,2.7-5.9,6-5.9s6,2.7,6,5.9
				c0,3.3-2.7,5.9-6,5.9S48.7,26,48.7,22.7z M56.7,30.3c-0.4,1.1-1,2-2,2.8c-1-0.8-1.7-1.8-2-2.8C54,30.7,55.3,30.7,56.7,30.3z
				 M50.7,31c0.5,1.4,1.4,2.6,2.6,3.7L52,36.9c-1.7-1.1-3-2.7-3.3-4.5L50.7,31z M40.2,36.9c0-2.1,1.7-3.9,3.9-3.9h2.7
				c0.5,2.3,2.2,4.5,4.5,5.8c0.8,0.5,1.8,0.2,2.3-0.6l1.1-1.8l1.1,1.8c0.5,0.8,1.5,1.1,2.3,0.6c2.3-1.3,4-3.5,4.5-5.8h2.7
				c2.1,0,3.9,1.7,3.9,3.9v6.5h-29V36.9z M28.2,41c0.1,0,0.1,0,0.2,0c0.1,0,0.1,0,0.2,0c1.5,0.1,2.8,1.1,3.2,2.5H25
				C25.4,42.1,26.7,41,28.2,41z M16.9,47.6c0-1.2,1-2.1,2.1-2.1c22.5,0-2,0,57,0c1.2,0,2.1,1,2.1,2.1s-1,2.1-2.1,2.1
				c-6.4,0-50,0-57,0C17.8,49.7,16.9,48.7,16.9,47.6z M73.6,51.7v22.2H21.4V51.7H73.6z"/>
			<path class="st4" d="M92.5,73.9h-5.6c-0.6,0-1,0.4-1,1s0.4,1,1,1h5.6c0.6,0,1-0.4,1-1S93.1,73.9,92.5,73.9z"/>
			<path class="st4" d="M25.8,67.8c0.9,0,1.7,0.8,1.7,1.7c0,0.6,0.4,1,1,1h37.9c0.6,0,1-0.4,1-1c0-0.9,0.8-1.7,1.7-1.7
				c0.6,0,1-0.4,1-1v-8c0-0.6-0.4-1-1-1c-0.9,0-1.7-0.8-1.7-1.7c0-0.6-0.4-1-1-1H28.6c-0.6,0-1,0.4-1,1c0,0.9-0.8,1.7-1.7,1.7
				c-0.6,0-1,0.4-1,1v8C24.8,67.3,25.3,67.8,25.8,67.8z M26.8,59.7c1.2-0.3,2.2-1.3,2.6-2.6h36.2c0.3,1.2,1.3,2.2,2.6,2.6v6.2
				c-1.2,0.3-2.2,1.3-2.6,2.6H29.4c-0.3-1.2-1.3-2.2-2.6-2.6V59.7z"/>
			<path class="st4" d="M29.8,65.1c0.1-0.1,0.1-0.2,0.1-0.3v-1.4h1.2c0.3,0,0.5,0.1,0.6,0.2c0.1,0.1,0.2,0.3,0.2,0.4
				c0,0.2,0.1,0.4,0.1,0.6v0.2c0,0.1,0,0.2,0.1,0.3c0.1,0.1,0.2,0.1,0.3,0.1c0.1,0,0.2,0,0.3-0.1c0.1-0.1,0.1-0.2,0.1-0.3v-0.3
				c0-0.3-0.1-0.6-0.2-0.9c-0.1-0.2-0.2-0.4-0.4-0.5c0.2-0.1,0.3-0.2,0.4-0.4c0.2-0.2,0.2-0.5,0.2-0.8c0-0.4-0.2-0.8-0.5-1.1
				c-0.3-0.3-0.8-0.4-1.4-0.4h-1.5c-0.1,0-0.2,0-0.3,0.1c-0.1,0.1-0.1,0.2-0.1,0.3v4c0,0.1,0,0.2,0.1,0.3
				C29.3,65.3,29.6,65.3,29.8,65.1z M29.9,61.2h1c0.4,0,0.7,0.1,0.9,0.2c0.2,0.1,0.2,0.3,0.2,0.5c0,0.2-0.1,0.4-0.3,0.5
				c-0.2,0.1-0.5,0.2-0.8,0.2h-1V61.2z"/>
			<path class="st4" d="M34.1,65.2h2.6c0.1,0,0.2,0,0.3-0.1c0.1-0.1,0.1-0.2,0.1-0.3c0-0.1,0-0.2-0.1-0.3c-0.1-0.1-0.2-0.1-0.3-0.1
				h-2.2v-1.2h1.9c0.1,0,0.2,0,0.3-0.1c0.1-0.1,0.1-0.2,0.1-0.3c0-0.1,0-0.2-0.1-0.3c-0.1-0.1-0.2-0.1-0.3-0.1h-1.9v-1.2h2.2
				c0.1,0,0.2,0,0.3-0.1c0.1-0.1,0.1-0.2,0.1-0.3s0-0.2-0.1-0.3c-0.1-0.1-0.2-0.1-0.3-0.1h-2.6c-0.1,0-0.2,0-0.3,0.1
				c-0.1,0.1-0.1,0.2-0.1,0.3v3.9c0,0.1,0,0.2,0.1,0.3C33.9,65.2,34,65.2,34.1,65.2z"/>
			<path class="st4" d="M38.6,65c0.4,0.2,0.8,0.3,1.2,0.3c0.3,0,0.6,0,0.8-0.1c0.2-0.1,0.5-0.2,0.7-0.3c0.1-0.1,0.2-0.2,0.2-0.4
				c0-0.1,0-0.2-0.1-0.3l0,0c-0.1-0.1-0.3-0.1-0.5-0.1c-0.2,0.1-0.4,0.2-0.5,0.2c-0.2,0-0.4,0.1-0.6,0.1c-0.3,0-0.6-0.1-0.9-0.2
				c-0.2-0.1-0.4-0.3-0.5-0.6c-0.1-0.2-0.2-0.5-0.2-0.8c0-0.3,0.1-0.6,0.2-0.8c0.1-0.2,0.3-0.4,0.5-0.6c0.2-0.1,0.5-0.2,0.9-0.2
				c0.2,0,0.4,0,0.6,0.1c0.2,0,0.4,0.1,0.5,0.2c0.1,0.1,0.3,0,0.5-0.1c0.1-0.1,0.1-0.2,0.1-0.3c0-0.2-0.1-0.3-0.2-0.4
				c-0.2-0.1-0.5-0.2-0.7-0.3c-0.2-0.1-0.5-0.1-0.8-0.1c-0.5,0-0.9,0.1-1.2,0.3c-0.4,0.2-0.7,0.5-0.9,0.9c-0.2,0.4-0.3,0.8-0.3,1.3
				c0,0.5,0.1,0.9,0.3,1.3C38,64.5,38.3,64.8,38.6,65z"/>
			<path class="st4" d="M42.7,65.2h2.6c0.1,0,0.2,0,0.3-0.1c0.1-0.1,0.1-0.2,0.1-0.3c0-0.1,0-0.2-0.1-0.3c-0.1-0.1-0.2-0.1-0.3-0.1
				h-2.2v-1.2H45c0.1,0,0.2,0,0.3-0.1c0.1-0.1,0.1-0.2,0.1-0.3c0-0.1,0-0.2-0.1-0.3c-0.1-0.1-0.2-0.1-0.3-0.1h-1.9v-1.2h2.2
				c0.1,0,0.2,0,0.3-0.1c0.1-0.1,0.1-0.2,0.1-0.3s0-0.2-0.1-0.3c-0.1-0.1-0.2-0.1-0.3-0.1h-2.6c-0.1,0-0.2,0-0.3,0.1
				c-0.1,0.1-0.1,0.2-0.1,0.3v3.9c0,0.1,0,0.2,0.1,0.3C42.5,65.2,42.6,65.2,42.7,65.2z"/>
			<path class="st4" d="M46.8,65.2c0.1,0,0.2,0,0.3-0.1c0.1-0.1,0.1-0.2,0.1-0.3v-1.3h1c0.4,0,0.8-0.1,1.1-0.2
				c0.3-0.1,0.5-0.3,0.6-0.6c0.1-0.2,0.2-0.5,0.2-0.8s-0.1-0.5-0.2-0.8c-0.1-0.2-0.3-0.4-0.6-0.6c-0.3-0.1-0.6-0.2-1.1-0.2h-1.5
				c-0.1,0-0.2,0-0.3,0.1c-0.1,0.1-0.1,0.2-0.1,0.3v4c0,0.1,0,0.2,0.1,0.3C46.6,65.2,46.7,65.2,46.8,65.2z M47.2,61.2h1
				c0.4,0,0.7,0.1,0.8,0.2c0.2,0.1,0.2,0.3,0.2,0.5c0,0.2-0.1,0.4-0.2,0.5c-0.2,0.1-0.4,0.2-0.8,0.2h-1V61.2z"/>
			<path class="st4" d="M50.6,61.2h1.2v3.6c0,0.1,0,0.2,0.1,0.3c0.1,0.1,0.2,0.1,0.3,0.1c0.1,0,0.2,0,0.3-0.1
				c0.1-0.1,0.1-0.2,0.1-0.3v-3.6h1.2c0.1,0,0.2,0,0.3-0.1c0.1-0.1,0.1-0.2,0.1-0.3c0-0.1,0-0.2-0.1-0.3l0,0
				c-0.1-0.1-0.2-0.1-0.3-0.1h-3.2c-0.1,0-0.2,0-0.3,0.1c-0.1,0.1-0.1,0.2-0.1,0.3c0,0.1,0,0.2,0.1,0.3
				C50.4,61.2,50.5,61.2,50.6,61.2z"/>
			<path class="st4" d="M55.1,65.2c0.1,0,0.2,0,0.3-0.1c0.1-0.1,0.1-0.2,0.1-0.3v-4c0-0.1,0-0.2-0.1-0.3l0,0c-0.2-0.2-0.4-0.2-0.6,0
				c-0.1,0.1-0.1,0.2-0.1,0.3v4c0,0.1,0,0.2,0.1,0.3C54.9,65.2,55,65.2,55.1,65.2z"/>
			<path class="st4" d="M57.4,64.9c0.4,0.2,0.8,0.3,1.3,0.3c0.5,0,0.9-0.1,1.3-0.3c0.4-0.2,0.6-0.5,0.8-0.9c0.2-0.4,0.3-0.8,0.3-1.3
				c0-0.5-0.1-0.9-0.3-1.3c-0.2-0.4-0.5-0.7-0.8-0.9c-0.4-0.2-0.8-0.3-1.3-0.3c-0.5,0-0.9,0.1-1.3,0.3c-0.4,0.2-0.6,0.5-0.8,0.9
				c-0.2,0.4-0.3,0.8-0.3,1.3c0,0.5,0.1,0.9,0.3,1.3C56.7,64.4,57,64.7,57.4,64.9z M57.3,62c0.1-0.2,0.3-0.4,0.5-0.6
				c0.2-0.1,0.5-0.2,0.8-0.2c0.3,0,0.6,0.1,0.8,0.2c0.2,0.1,0.4,0.3,0.5,0.6c0.1,0.2,0.2,0.5,0.2,0.8c0,0.3-0.1,0.6-0.2,0.8
				c-0.1,0.2-0.3,0.4-0.5,0.6c-0.2,0.1-0.5,0.2-0.8,0.2s-0.6-0.1-0.8-0.2c-0.2-0.1-0.4-0.3-0.5-0.6c-0.1-0.2-0.2-0.5-0.2-0.8
				C57.1,62.5,57.1,62.2,57.3,62z"/>
			<path class="st4" d="M62.5,65.1c0.1-0.1,0.1-0.2,0.1-0.3v-3.1l2.3,3.3c0.1,0.1,0.1,0.1,0.2,0.2c0.1,0,0.2,0.1,0.3,0.1h0.1
				c0.2,0,0.3-0.1,0.4-0.2c0.1-0.1,0.2-0.2,0.2-0.4v-3.9c0-0.1,0-0.2-0.1-0.3v0c-0.2-0.2-0.4-0.2-0.6,0c-0.1,0.1-0.1,0.2-0.1,0.3
				v3.1l-2.3-3.3c-0.1-0.2-0.3-0.2-0.5-0.2h-0.1c-0.2,0-0.3,0.1-0.4,0.2c-0.1,0.1-0.2,0.2-0.2,0.4v3.9c0,0.1,0,0.2,0.1,0.3
				C62,65.3,62.3,65.3,62.5,65.1z"/>
		</g>
	</g>
</g>
</svg>
