<?xml version="1.0" encoding="utf-8"?>
<!-- Generator: Adobe Illustrator 22.0.1, SVG Export Plug-In . SVG Version: 6.00 Build 0)  -->
<svg version="1.1" id="Layer_1" xmlns="http://www.w3.org/2000/svg" xmlns:xlink="http://www.w3.org/1999/xlink" x="0px" y="0px"
	 viewBox="0 0 95 95" style="enable-background:new 0 0 95 95;" xml:space="preserve">
<style type="text/css">
	.st0{fill:#D0F7F7;}
	.st1{fill:#FFFFFF;}
	.st2{fill:#D0F7F7;}
	.st3{fill:#10bdc7;}
	.st4{opacity:0.5;}
	.st5{opacity:0.3;}
	.st6{fill:none;}
	.st7{fill:#E8EFF8;}
</style>
<g>
	<g>
		<g>
			<path class="st0" d="M83,36.2c-4.3,2.9-9.3,4.6-13.5,7.6c-4.2,3.1-7.5,8.3-5.9,13.3c1,3.4,4,5.7,5.5,8.9
				c1.9,4.2,0.8,9.5-2.4,12.9c-3.2,3.3-8.2,4.7-12.7,3.9c-4.6-0.8-8.6-3.7-11.3-7.4c-1.8-2.5-3-5.4-4.8-7.9
				c-1.7-2.5-4.2-4.8-7.3-5.3c-5.9-0.8-11,5.5-17,5.1C9.8,67,6.5,63.7,5.7,60c-0.8-3.7,0.5-7.7,3-10.6c2.5-2.9,6-4.8,9.7-5.8
				c2.5-0.7,5.1-1.1,7.6-2c2.5-0.9,4.8-2.4,6.1-4.7c3-5.8-2.3-13.1,0-19.1c1.3-3.5,5.2-5.7,8.9-5.6c3.7,0.1,7.3,2.1,9.6,5
				c1.4,1.7,3.2,8.7,4.9,9.3c2,0.6,8.5-5.9,10.3-7.1c4.1-2.6,8.8-4.6,13.6-4.3c4.8,0.4,9.6,3.7,10.5,8.4
				C90.9,28.4,87.2,33.3,83,36.2z"/>
		</g>
		<g>
			<path class="st0" d="M37.3,79.9c0-0.3,0.3-0.6,0.6-0.6l0.9,0l0-0.9c0-0.3,0.3-0.6,0.6-0.6c0.3,0,0.6,0.3,0.6,0.6l0,0.9l0.9,0
				c0.3,0,0.6,0.3,0.6,0.6c0,0.3-0.3,0.6-0.6,0.6l-0.9,0l0,0.9c0,0.3-0.3,0.6-0.6,0.6c-0.3,0-0.6-0.3-0.6-0.6l0-0.9l-0.9,0
				C37.5,80.5,37.3,80.3,37.3,79.9z"/>
		</g>
		<g>
			<path class="st2" d="M9.9,18.5c0,0.4-0.4,0.7-0.8,0.7l-1.1,0l0,1.1c0,0.4-0.4,0.7-0.8,0.7c-0.4,0-0.7-0.3-0.7-0.8l0-1.1l-1.1,0
				c-0.4,0-0.7-0.4-0.7-0.8c0-0.4,0.3-0.7,0.8-0.7l1.1,0l0-1.1c0-0.4,0.4-0.7,0.8-0.7c0.4,0,0.7,0.4,0.7,0.8l0,1.1l1.1,0
				C9.6,17.7,9.9,18.1,9.9,18.5z"/>
		</g>
		<g>
			<path class="st0" d="M93.3,43.1c0.2,0.4,0,0.8-0.4,1l-1,0.4l0.4,1c0.2,0.4,0,0.8-0.4,1c-0.4,0.2-0.8,0-1-0.4l-0.4-1l-1,0.4
				c-0.4,0.2-0.8,0-1-0.4c-0.2-0.4,0-0.8,0.4-1l1-0.4l-0.4-1c-0.2-0.4,0-0.8,0.4-1c0.4-0.2,0.8,0,1,0.4l0.4,1l1-0.4
				C92.7,42.5,93.2,42.7,93.3,43.1z"/>
		</g>
		<g>
			<g>
				<path class="st1" d="M60.9,21.4v49.3c0,2.2-1.7,4-3.8,4.1c-0.1,0-0.2,0-0.3,0H25.2c-2.3,0-4.1-1.8-4.1-4.1V21.4
					c0-2.3,1.8-4.1,4.1-4.1h31.5C59,17.3,60.9,19.2,60.9,21.4z"/>
			</g>
			<g class="st5">
				<path class="st2" d="M60.9,54.5v16.2c0,2.2-1.7,4-3.8,4.1c-2.6-2.2-4.2-5.5-4.2-9.2c0-3.2,1.3-6.2,3.6-8.4
					C57.7,56,59.2,55.1,60.9,54.5z"/>
			</g>
			<g>
				<path class="st0" d="M60.1,21.4v49.3c0,2.3-1.8,4.1-4.1,4.1h-4.4c2.3,0,4.1-1.8,4.1-4.1V21.4c0-2.3-1.8-4.1-4.1-4.1H56
					C58.3,17.3,60.1,19.2,60.1,21.4z"/>
			</g>
			<g>
				<g>
					<g>
						<g>
							<g>
								<path class="st0" d="M42.8,39.6c0,2.7-2.2,4.9-4.9,4.9c-2.7,0-4.9-2.2-4.9-4.9s2.2-4.9,4.9-4.9
									C40.6,34.8,42.8,36.9,42.8,39.6z"/>
							</g>
						</g>
					</g>
					<g>
						<path class="st1" d="M40.2,40.3l-2.7,1.8c-0.6,0.4-1.3,0-1.3-0.7v-3.6c0-0.7,0.8-1.1,1.3-0.7l2.7,1.8
							C40.7,39.2,40.7,40,40.2,40.3z"/>
					</g>
				</g>
				<g>
					<g>
						<path class="st0" d="M52.2,34.2c0,2.4-1.9,4.3-4.3,4.3c-2.4,0-4.3-1.9-4.3-4.3c0-2.4,1.9-4.3,4.3-4.3
							C50.3,29.9,52.2,31.8,52.2,34.2z"/>
					</g>
					<g>
						<g>
							<path class="st3" d="M50.5,32.6v3.2c0,0.1,0,0.2-0.1,0.2c0,0-0.1,0.1-0.2,0.1h-4.7c-0.1,0-0.1,0-0.2-0.1
								c-0.1-0.1-0.1-0.1-0.1-0.2v-3.2c0-0.1,0-0.2,0.1-0.2c0.1,0,0.1-0.1,0.2-0.1h4.7c0.1,0,0.2,0,0.2,0.1
								C50.5,32.4,50.5,32.5,50.5,32.6z"/>
						</g>
						<g>
							<path class="st1" d="M45.3,36l2.4-2c0.1-0.1,0.3-0.1,0.4,0l2.3,2c0,0-0.1,0.1-0.2,0.1l-4.7,0C45.4,36.1,45.3,36.1,45.3,36z"
								/>
						</g>
						<g>
							<path class="st2" d="M45.5,32.3l4.7,0c0.1,0,0.2,0,0.2,0.1l-2.3,2c-0.1,0.1-0.3,0.1-0.4,0l-2.4-2
								C45.3,32.3,45.4,32.3,45.5,32.3z"/>
						</g>
					</g>
				</g>
			</g>
			<g>
				<g>
					<g>
						<path class="st1" d="M73.9,65.9c-0.1,5-4.2,9-9.2,9c-5-0.1-9-4.2-9-9.2c0.1-5,4.2-9,9.2-9C69.9,56.8,73.9,60.9,73.9,65.9z"/>
					</g>
					<g>
						<path class="st0" d="M73.9,65.9c-0.1,5-4.2,9-9.2,9c-0.4,0-0.9,0-1.3-0.1c4.4-0.6,7.8-4.3,7.8-8.9s-3.3-8.4-7.6-9.1
							c0.4-0.1,0.9-0.1,1.3-0.1C69.9,56.8,73.9,60.9,73.9,65.9z"/>
					</g>
				</g>
				<g>
					<path class="st3" d="M80.8,23.3l0,1.1c0,0.4,0.3,0.7,0.7,0.8c0.4,0,0.7-0.3,0.8-0.7l0-1.1l1.1,0c0.4,0,0.7-0.3,0.8-0.7
						c0-0.4-0.3-0.7-0.7-0.8l-1.1,0l0-1.1c0-0.4-0.3-0.7-0.7-0.8c-0.4,0-0.7,0.3-0.8,0.7l0,1.1l-1.1,0c-0.4,0-0.7,0.3-0.8,0.7
						c0,0.4,0.3,0.7,0.7,0.8L80.8,23.3z"/>
					<path class="st3" d="M8.3,73.8l-5.8,0c0,0,0,0,0,0c-0.6,0-1,0.4-1,1c0,0.6,0.4,1,1,1l5.8,0c0,0,0,0,0,0c0.6,0,1-0.4,1-1
						C9.3,74.2,8.9,73.8,8.3,73.8z"/>
					<path class="st3" d="M74.8,73.8l-4,0c0.4-0.3,0.7-0.5,1-0.9c1.9-1.9,3-4.4,3-7.1c0-2.7-1-5.2-2.9-7.1c-1.9-1.9-4.4-3-7.1-3
						c-1.1,0-2.1,0.2-3.1,0.5V21.4c0-2.8-2.3-5.1-5.1-5.1H25.2c-2.8,0-5.1,2.3-5.1,5.1v49.3c0,1.1,0.4,2.2,1,3.1l-5.1,0h0
						c-0.6,0-1,0.4-1,1c0,0.6,0.4,1,1,1c10.4,0,51.3,0,58.7,0h0c0.6,0,1-0.4,1-1C75.8,74.3,75.3,73.8,74.8,73.8z M64.9,57.7
						c2.2,0,4.2,0.9,5.7,2.4s2.3,3.6,2.3,5.7c0,0,0,0,0,0c0,2.2-0.9,4.2-2.4,5.7c-1.4,1.4-3.3,2.2-5.2,2.3l-0.8,0
						c-4.3-0.2-7.7-3.8-7.7-8.1c0-2.2,0.9-4.2,2.4-5.7C60.7,58.5,62.7,57.7,64.9,57.7C64.8,57.7,64.9,57.7,64.9,57.7z M22.1,21.4
						c0-1.7,1.4-3.1,3.1-3.1h31.5c1.7,0,3.1,1.4,3.1,3.1v2.9H22.1V21.4z M22.1,26.3h37.7v30.7c-0.7,0.4-1.4,0.9-2.1,1.5
						c-1.9,1.9-3,4.4-3,7.1c0,0.1,0,0.1,0,0.2H22.1V26.3z M22.1,70.7v-2.9H55c0.5,2.2,1.6,4.2,3.3,5.6c-0.4,0.2-0.8,0.4-1.3,0.4
						l-32.3,0C23.2,73.6,22.1,72.3,22.1,70.7z"/>
					<path class="st3" d="M92.5,73.9l-12,0h0c-0.6,0-1,0.4-1,1c0,0.6,0.4,1,1,1l12,0h0c0.6,0,1-0.4,1-1
						C93.5,74.3,93.1,73.9,92.5,73.9z"/>
					<path class="st3" d="M47.4,20.3h-6c-0.6,0-1,0.5-1,1c0,0.6,0.5,1,1,1h6c0.6,0,1-0.5,1-1C48.4,20.8,48,20.3,47.4,20.3z"/>
					<path class="st3" d="M38,20.3h-1.2c-0.6,0-1,0.5-1,1c0,0.6,0.5,1,1,1H38c0.6,0,1-0.5,1-1C39.1,20.8,38.6,20.3,38,20.3z"/>
					<path class="st3" d="M41,69.1c-1,0-1.7,0.8-1.7,1.7c0,1,0.8,1.7,1.7,1.7c1,0,1.7-0.8,1.7-1.7C42.7,69.9,41.9,69.1,41,69.1z"/>
					<path class="st3" d="M54.8,58.7c0.6,0,1-0.4,1-1s-0.4-1-1-1H32l1.1-2.4c4.9,0,14.7,0,19.9,0c1,0,1.9-0.8,2-1.8l1.2-11.2
						c0.1-0.6-0.1-1.1-0.5-1.6c-0.4-0.4-0.9-0.7-1.5-0.7c-7.6,0-14.3,0-22.9,0l-1.1-2.6c-0.5-1-1.5-1.7-2.6-1.7h-0.6
						c-0.6,0-1,0.4-1,1s0.4,1,1,1h0.6c0.3,0,0.7,0.2,0.8,0.5l1.3,3.1c0.2,1.4-0.6-4.1,1.9,12.8l-1.2,2.7c-0.4,0.5-0.4,1.2-0.2,1.8
						c0.3,0.6,0.8,1,1.4,1c-0.2,0.4-0.3,0.8-0.3,1.3c0,1.8,1.5,3.3,3.3,3.3c1.8,0,3.3-1.5,3.3-3.3c0-0.4-0.1-0.9-0.3-1.3h10.6
						c-0.2,0.4-0.3,0.8-0.3,1.3c0,1.8,1.5,3.3,3.3,3.3c1.8,0,3.3-1.5,3.3-3.3c0-0.4-0.1-0.9-0.3-1.3H54.8z M37.2,45.6l-4.8,0
						l-0.7-4.6l5.3,0L37.2,45.6z M39,41.1l7.8,0l-0.1,4.5l-7.5,0.1L39,41.1z M33.3,52.3c0-0.1-0.7-4.9-0.7-4.6l4.6,0l0.2,4.6H33.3z
						 M39.5,52.3l-0.2-4.7l7.3-0.1l-0.1,4.7H39.5z M53,52.3h-4.5l0.2-4.8l4.9,0L53,52.3C53,52.3,53,52.3,53,52.3z M54.1,41.1
						l-0.5,4.4l-5,0l0.1-4.4L54.1,41.1z M35.8,59.9c0,0.7-0.6,1.3-1.3,1.3s-1.3-0.6-1.3-1.3s0.6-1.3,1.3-1.3S35.8,59.2,35.8,59.9z
						 M52.4,59.9c0,0.7-0.6,1.3-1.3,1.3s-1.3-0.6-1.3-1.3s0.6-1.3,1.3-1.3S52.4,59.2,52.4,59.9z"/>
					<path class="st3" d="M62.1,68.9c-0.1,0-0.2-0.1-0.3-0.1c-0.2,0-0.3,0.1-0.4,0.2c-0.1,0.1-0.2,0.2-0.2,0.4c0,0.1,0,0.2,0.1,0.3
						c0.1,0.1,0.2,0.2,0.3,0.2c1.4,0.6,2.7,0.6,2.9,0.6l0,1c0,0.1,0,0.2,0.1,0.2c0.1,0.1,0.1,0.1,0.2,0.1c0.1,0,0.2,0,0.2-0.1
						c0.1-0.1,0.1-0.1,0.1-0.2l0-1c0.2,0,0.9,0,1.7-0.4c0.5-0.2,0.8-0.5,1.1-0.9c0.3-0.4,0.4-0.8,0.4-1.3c0-0.6-0.2-1.1-0.5-1.4
						c-0.3-0.4-0.7-0.6-1.1-0.8c-0.4-0.2-0.8-0.3-1.4-0.4l-0.2-0.1l0-3.2l0.3,0c0.6,0,1.1,0.2,1.7,0.3c0.1,0,0.2,0.1,0.3,0.1
						c0.1,0,0.2-0.1,0.3-0.2c0.1-0.1,0.2-0.2,0.2-0.4c0-0.3-0.1-0.5-0.4-0.6c-0.6-0.2-1.3-0.4-2.1-0.4l-0.3,0l0-1
						c0-0.2-0.1-0.3-0.3-0.3c-0.1,0-0.2,0-0.2,0.1c-0.1,0.1-0.1,0.1-0.1,0.2l0,1l-0.3,0c-0.5,0.1-1,0.2-1.4,0.4
						c-0.5,0.3-0.8,0.6-1.1,1c-0.2,0.4-0.4,0.9-0.4,1.3c0,0.6,0.2,1,0.5,1.4c0.3,0.3,0.7,0.6,1.1,0.8c0.7,0.3,1.5,0.5,1.6,0.5l0,3.1
						l-0.3,0C63.4,69.4,62.7,69.2,62.1,68.9z M66.6,67.1c0.3,0.2,0.5,0.5,0.5,0.8c0,0.8-0.5,1.3-1.5,1.5l-0.4,0.1l0-2.9
						C65.4,66.6,66.1,66.8,66.6,67.1z M63.1,64.5c-0.3-0.2-0.5-0.5-0.5-0.9c0-0.4,0.2-0.8,0.5-1c0.3-0.2,0.6-0.3,1-0.4l0.4-0.1l0,3
						C64.3,65,63.6,64.9,63.1,64.5z"/>
				</g>
			</g>
		</g>
	</g>
</g>
</svg>
