<?xml version="1.0" encoding="utf-8"?>
<!-- Generator: Adobe Illustrator 21.0.0, SVG Export Plug-In . SVG Version: 6.00 Build 0)  -->
<svg version="1.1" id="Layer_1" xmlns="http://www.w3.org/2000/svg" xmlns:xlink="http://www.w3.org/1999/xlink" x="0px" y="0px"
	 viewBox="0 0 95 95" style="enable-background:new 0 0 95 95;" xml:space="preserve">
<style type="text/css">
	.st0{fill:#D0F7F7;}
	.st1{fill:#FFFFFF;}
	.st2{fill:#E8F0FD;}
	.st3{fill:#10BDC7;}
</style>
<title>Tutorials</title>
<path class="st0" d="M88.4,47.8c0,4.9-4.2,8.9-8.7,10.5s-9.5,1.5-14.3,2S55,65.2,51.6,68.7c-2.2,2.3-3.3,5.4-4.9,8.2
	s-3.8,5.5-6.9,6.2c-3.4,0.7-6.9-1.5-8.9-4.3c-2-2.9-2.9-6.4-3.9-9.8s-1.5-10.1-3.9-12.7c-2.1-2.2-4.9-3.6-7.6-5s-5.5-2.9-7.2-5.4
	c-1.8-2.5-2.3-6.1-0.4-8.5c2.4-3,6.8-2.6,10.6-2.9c7.2-0.7,13.6-4.8,17.3-11c1.3-2.3,2.2-4.8,3.7-7.1c1.5-2.2,3.6-4.2,6.3-4.5
	c3.7-0.4,6.8,2.6,9.4,5.3c4.9,5.2,9.6,11.8,16,15.2C77.4,35.8,88.4,38.8,88.4,47.8z"/>
<path class="st0" d="M64,79.2c0.1,0.4-0.2,0.8-0.6,0.9l-1,0.2l0.2,1c0.1,0.4-0.2,0.8-0.6,0.9c-0.4,0.1-0.8-0.2-0.9-0.6l-0.2-1
	l-1,0.2c-0.4,0.1-0.8-0.2-0.9-0.6c-0.1-0.4,0.2-0.8,0.6-0.9l1-0.2l-0.2-1c-0.1-0.4,0.2-0.8,0.6-0.9s0.8,0.2,0.9,0.6c0,0,0,0,0,0
	l0.2,1l1-0.2C63.5,78.6,63.9,78.8,64,79.2z"/>
<path class="st0" d="M10.4,59.6c-0.1,0.4-0.4,0.7-0.8,0.6l-1-0.2l-0.2,1c-0.1,0.4-0.4,0.7-0.8,0.6S6.9,61.2,7,60.8l0.2-1l-1-0.2
	c-0.4-0.1-0.7-0.4-0.6-0.8s0.4-0.7,0.8-0.6l1,0.2l0.2-1C7.7,57,8,56.7,8.4,56.8c0.4,0.1,0.7,0.4,0.6,0.8l-0.2,1l1,0.2
	c0.4,0,0.6,0.3,0.6,0.7C10.4,59.5,10.4,59.5,10.4,59.6z"/>
<path class="st1" d="M75.1,63.6c-1.2,3.7-1.2,7.6,0,11.3H25.5c-3.1,0-5.6-2.5-5.6-5.6c0,0,0,0,0,0l0,0c0-3.1,2.5-5.6,5.6-5.6
	c0,0,0,0,0,0h49.6V63.6z"/>
<path class="st0" d="M27.2,72.5c-1.8,0-3.2-1.4-3.2-3.2c0-1.8,1.4-3.2,3.2-3.2l0,0h47.2c-0.4,2.1-0.4,4.4,0,6.5L27.2,72.5L27.2,72.5
	z"/>
<path class="st1" d="M42.2,63.4c-1.1-0.8-2.7-3.2-3.6-4.3c-0.3-1.2-0.4-2.5-0.4-3.8c0-7.1,4.6-12.8,10.2-12.8s10.2,5.7,10.2,12.8
	c0,1.3-0.2,2.5-0.4,3.8c-0.9,1.1-2.4,3.6-3.5,4.4"/>
<path class="st1" d="M41.6,61.9c-1.1-0.8-2.1-1.7-2.9-2.8c-1.6-2-2.7-4.3-3.4-6.8c0.4-2.3,1.1-4.4,2.1-6.5c0.2-0.5,0.4-1,0.6-1.4
	l0,0c0.1-0.2,0.1-0.3,0.1-0.5c0.3-1.9-0.7-3.7-2.5-4.4h-0.1c0.5-1.7,1.2-3.2,2.2-4.7c1.2,1.1,2.7,1.6,4.3,1.6c3.4,0,6.3-2.6,6.6-6
	l0,0c0.3,3.4,3.2,6,6.6,6c1.6,0,3.1-0.6,4.3-1.6c0.9,1.5,1.6,3.1,2.2,4.7h-0.1c-1.8,0.6-2.9,2.5-2.5,4.4c0,0.2,0.1,0.3,0.1,0.5l0,0
	c0.2,0.5,0.4,1,0.6,1.4c0.9,2.1,1.6,4.3,2.1,6.5l0,0c-0.7,2.5-1.8,4.8-3.4,6.8c-0.8,1.1-1.8,2-2.9,2.8"/>
<path class="st0" d="M58.7,55.3c0,1.3-0.2,2.5-0.4,3.8c-0.9,1.1-2.4,3.6-3.5,4.4h-3.6c1.1-0.8,2.6-3.3,3.4-4.3
	c0.3-1.2,0.4-2.5,0.4-3.8c0-6.3-3.6-11.5-8.4-12.6c0.6-0.1,1.2-0.2,1.8-0.2C54.1,42.5,58.7,48.3,58.7,55.3z"/>
<path class="st1" d="M61.3,60c1.4-5.2,0.2-9.9-1.7-14.2c-0.2-0.5-0.4-1-0.6-1.4l0,0c-0.1-0.2-0.1-0.3-0.1-0.5c-0.5-2,0.8-4,2.8-4.5
	c0.1,0,0.2,0,0.2,0c1.8-0.3,3.6,0.7,4.3,2.5c0.1,0.3,0.2,0.5,0.3,0.8C68.7,50.5,66.7,58.2,61.3,60z"/>
<path class="st0" d="M61.3,60c0.2-0.6,0.3-1.3,0.4-1.9c3.1-3.2,3.9-9.3,2.1-15.4c-0.1-0.3-0.2-0.5-0.3-0.8c-0.4-1.1-1.2-1.9-2.3-2.3
	c0.2-0.1,0.4-0.1,0.6-0.2c1.8-0.3,3.6,0.7,4.3,2.5c0.1,0.3,0.2,0.5,0.3,0.8C68.7,50.5,66.7,58.2,61.3,60z"/>
<path class="st1" d="M35.6,60c-1.4-5.2-0.2-9.9,1.7-14.2c0.2-0.5,0.4-1,0.6-1.4l0,0c0.1-0.2,0.1-0.3,0.1-0.5c0.4-2-0.9-4-2.9-4.5
	c0,0-0.1,0-0.1,0c-1.8-0.2-3.6,0.9-4.2,2.6c-0.1,0.3-0.2,0.5-0.3,0.8C27.9,50.5,30.2,58.2,35.6,60z"/>
<path class="st0" d="M38.1,43.8c0,0.2-0.1,0.3-0.1,0.5l0,0c-0.2,0.5-0.4,1-0.6,1.4c-1.9,4.3-3.1,9-1.7,14.2c-1.1-0.4-2.1-1-2.9-1.8
	c-0.7-4.5,0.4-8.6,2.1-12.5c0.2-0.5,0.4-0.9,0.6-1.4l0,0c0.1-0.1,0.1-0.3,0.1-0.5c0.4-1.8-0.6-3.7-2.4-4.3c0.6-0.2,1.2-0.3,1.8-0.2
	C37.1,39.6,38.5,41.7,38.1,43.8z"/>
<ellipse transform="matrix(0.7071 -0.7071 0.7071 0.7071 -8.7084 38.2907)" class="st1" cx="41.9" cy="29.7" rx="6.6" ry="6.6"/>
<path class="st0" d="M48.4,29.7c0,3.6-3,6.6-6.6,6.6c-0.4,0-0.8,0-1.2-0.1c3.6-0.7,6-4.1,5.3-7.7c-0.5-2.7-2.6-4.8-5.3-5.3
	c0.4-0.1,0.8-0.1,1.2-0.1C45.4,23.1,48.4,26,48.4,29.7C48.4,29.7,48.4,29.7,48.4,29.7z"/>
<ellipse transform="matrix(0.7071 -0.7071 0.7071 0.7071 -4.9063 47.589)" class="st1" cx="55" cy="29.7" rx="6.6" ry="6.6"/>
<path class="st0" d="M61.6,29.7c0,3.6-3,6.6-6.6,6.6c-0.4,0-0.8,0-1.2-0.1c3.6-0.7,6-4.1,5.3-7.7c-0.5-2.7-2.6-4.8-5.3-5.3
	c0.4-0.1,0.8-0.1,1.2-0.1C58.6,23.1,61.6,26,61.6,29.7C61.6,29.7,61.6,29.7,61.6,29.7z"/>
<polyline class="st1" points="37,17.2 33.3,16.3 48.3,12.9 63.3,16.3 59.6,17.2 "/>
<polygon class="st0" points="63.3,16.3 59.6,17.2 44.5,13.8 48.3,12.9 "/>
<polyline class="st1" points="59.6,17.2 48.3,19.7 37,17.2 "/>
<path class="st1" d="M59.6,17.2V25c-1.2-1.2-2.9-1.9-4.6-1.9c-3.4,0-6.3,2.6-6.6,6h-0.1c-0.3-3.4-3.2-6-6.6-6
	c-1.8,0-3.6,0.8-4.9,2.1v-8.1l11.3,2.6L59.6,17.2z"/>
<path class="st0" d="M59.6,17.2V25c-0.7-0.7-1.6-1.2-2.6-1.6v-5.7L59.6,17.2z"/>
<polygon class="st2" points="57.1,17.2 57.1,17.7 48.3,19.7 47,19.4 "/>
<path class="st1" d="M45.7,62.2v2c0,0.4-0.3,0.7-0.7,0.7c0,0,0,0,0,0h-2.7c-0.4,0-0.7-0.3-0.7-0.7c0,0,0,0,0,0v-2c0-1.1,0.9-2,2-2
	h0.1c1-0.1,1.9,0.7,2,1.8C45.7,62,45.7,62.1,45.7,62.2z"/>
<path class="st1" d="M55.3,62.2v2c0,0.4-0.3,0.7-0.7,0.7c0,0,0,0,0,0H52c-0.4,0-0.7-0.3-0.7-0.7c0,0,0,0,0,0v-2c0-1.1,0.9-2,2-2l0,0
	c1-0.1,1.9,0.7,2,1.8C55.3,62,55.3,62.1,55.3,62.2z"/>
<path class="st3" d="M84.4,30.4l-1,0.2l-0.2-1c-0.1-0.4-0.5-0.7-0.9-0.6s-0.7,0.5-0.6,0.9c0,0,0,0,0,0l0.2,1l-1,0.2
	c-0.4,0.1-0.6,0.5-0.6,0.9c0.1,0.4,0.5,0.7,0.9,0.6l1-0.2l0.2,1c0.1,0.4,0.5,0.6,0.9,0.6c0.4-0.1,0.7-0.5,0.6-0.9l-0.2-1l1-0.2
	c0.4-0.1,0.6-0.5,0.6-0.9C85.1,30.6,84.8,30.3,84.4,30.4z"/>
<path class="st3" d="M13.3,23.2l-0.2-1l1-0.2c0.4-0.1,0.7-0.5,0.6-0.9c-0.1-0.4-0.5-0.7-0.9-0.6l-1,0.2l-0.2-1
	c-0.1-0.4-0.5-0.6-0.9-0.6c-0.4,0.1-0.6,0.5-0.6,0.9l0.2,1l-1,0.2c-0.4,0.1-0.6,0.5-0.6,0.9c0.1,0.4,0.5,0.7,0.9,0.6l1-0.2l0.2,1
	c0.1,0.4,0.5,0.6,0.9,0.6C13.1,24,13.4,23.6,13.3,23.2z"/>
<path class="st3" d="M5.4,73.9H2.5c-0.6,0-1,0.4-1,1s0.4,1,1,1h2.9c0.6,0,1-0.4,1-1S6,73.9,5.4,73.9z"/>
<path class="st3" d="M80.1,73.9h-4.2c-0.5-1.6-0.7-3.2-0.7-4.8l0,0c0-1.7,0.3-3.5,0.9-5.1c0.1-0.3,0.1-0.6-0.1-0.9
	c-0.2-0.3-0.5-0.4-0.8-0.4H56.3v-0.3c1-0.7,1.9-1.6,2.7-2.6l0,0c0.7-0.9,1.3-1.8,1.8-2.8c-0.1,0.9-0.2,1.9-0.5,2.8
	c-0.1,0.4,0,0.8,0.3,1c0.2,0.2,0.4,0.3,0.7,0.3c0.1,0,0.2,0,0.3-0.1c7-2.3,8.1-12.6,5.4-19.5c-0.8-2-2.7-3.3-4.9-3.2
	c-0.4-1.2-0.9-2.3-1.6-3.4c2.8-2.9,2.8-7.4,0.1-10.3v-6.7l1.7-0.4v4c0,0.6,0.4,1,1,1c0.6,0,1-0.4,1-1v-5.3c0-0.5-0.3-0.9-0.8-1
	l-15-3.4h-0.4l-15,3.4c-0.6,0.1-0.9,0.7-0.8,1.2c0.1,0.4,0.4,0.7,0.8,0.8l2.9,0.6v6.9c-1.1,1.3-1.7,3-1.7,4.8c0,1.9,0.8,3.8,2.1,5.2
	c-0.6,1.1-1.1,2.2-1.6,3.4c-2.2-0.2-4.2,1.2-4.9,3.3c-2.8,7.7-1.3,17.2,5.4,19.4c0.1,0,0.2,0.1,0.3,0.1c0.6,0,1-0.5,1-1.1
	c0-0.1,0-0.2,0-0.2c-0.2-0.9-0.4-1.9-0.5-2.8c0.5,1,1.1,1.9,1.8,2.8c0.8,1,1.7,1.9,2.7,2.6v0.3H25.5c-3.6,0-6.6,2.9-6.6,6.6
	c0,0,0,0,0,0c0,1.7,0.7,3.4,1.9,4.6h-6.7c-0.6,0-1,0.4-1,1s0.4,1,1,1c76.3,0.1,56.8,0,66.1,0.1l0,0c0.5,0,1-0.4,1-0.9
	c0,0,0-0.1,0-0.1C81,74.3,80.6,73.9,80.1,73.9z M44.7,63.6L44.7,63.6V64h-2.2v-1.8c0-0.6,0.5-1,1.1-1c0,0,0,0,0,0c0.6,0,1,0.4,1,1
	v1.4H44.7z M52.2,62.2c0-0.6,0.4-1,1-1s1,0.4,1,1V64h-2.1v-1.8H52.2z M53.3,59.1c-1.7,0-3,1.3-3,3v0.4h-3.5v-0.4c0-1.7-1.4-3-3.1-3
	c0,0,0,0,0,0c-0.9,0-1.8,0.5-2.4,1.2c-0.6-0.5-1.1-1.1-1.6-1.7c-0.2-1.1-0.4-2.2-0.4-3.3c0-6.5,4.1-11.8,9.2-11.8s9.2,5.3,9.2,11.8
	c0,1.1-0.1,2.2-0.4,3.3c-1,1.2-1.5,1.6-1.6,1.6C55.1,59.5,54.2,59.1,53.3,59.1z M39,44c0.1-0.3,0.1-0.6,0.1-0.9V43
	c0-1.8-1-3.4-2.5-4.2c0.3-0.9,0.7-1.8,1.2-2.6c1.2,0.7,2.6,1.1,4,1.1l0,0c1.5,0,3-0.5,4.3-1.4l1.8,4.8c0.1,0.2,0.3,0.3,0.5,0.3
	c0.1,0,0.2-0.1,0.3-0.3l1.8-4.8l0.1,0.1c1.2,0.8,2.7,1.3,4.2,1.3l0,0c1.4,0,2.8-0.4,4-1.1c0.5,0.8,0.9,1.8,1.2,2.7
	c-1.5,0.9-2.5,2.5-2.5,4.2v0.1c0,0.3,0,0.6,0.1,0.9c0.3,1.4,2,4.1,2.8,8.3c-0.3,0.9-0.6,1.7-1,2.5c-0.2-7.4-5.1-13.3-11.2-13.3
	c-6,0-11,5.9-11.2,13.3c-0.4-0.8-0.7-1.6-1-2.5C37,48.2,38.8,45.4,39,44z M42.8,22.2c-1.6-0.2-3.3,0.2-4.7,1H38v-4.8l10.1,2.3h0.4
	l10.1-2.3V23c-1.1-0.6-2.3-0.9-3.6-0.9c-2.7,0-5.2,1.5-6.6,3.8C47.2,23.8,45.1,22.5,42.8,22.2z M65.1,42.2c1.9,4.9,1.8,12.8-2.4,16
	c1.1-7.3-2.6-13.1-2.9-14.6c-0.3-1.5,0.7-3,2.2-3.3C63.4,40.1,64.6,40.9,65.1,42.2z M55,35.3L55,35.3c-3.1,0-5.6-2.5-5.6-5.6
	c0,0,0,0,0,0v-0.4l0,0c0.2-2.9,2.7-5.1,5.6-5.1c0.3,0,0.7,0,1,0.1c2.6,0.5,4.5,2.8,4.5,5.5c0,3-2.3,5.5-5.3,5.5
	C55.1,35.3,55.1,35.3,55,35.3z M48.3,14l10.4,2.4l-10.4,2.4l-10.4-2.4L48.3,14z M41.8,24.1c3.1,0,5.6,2.5,5.6,5.6s-2.5,5.6-5.6,5.6
	l0,0c-3.1,0-5.6-2.5-5.6-5.6C36.3,26.6,38.7,24.1,41.8,24.1z M31.7,42.3c0.4-1.5,1.9-2.3,3.4-1.9c1.4,0.4,2.3,1.8,2,3.2
	c-0.2,0.8-2.1,4.2-2.8,8.5l0,0c-0.3,2-0.4,4-0.1,6C29.8,55,29.7,47.6,31.7,42.3z M20.9,69.3c0-2.5,2-4.6,4.6-4.6c0,0,0,0,0,0h15.1
	c0.2,0.8,0.9,1.3,1.7,1.3H45c0.8,0,1.5-0.5,1.7-1.3h3.6c0.2,0.8,0.9,1.3,1.7,1.3h2.6c0.8,0,1.5-0.5,1.7-1.3h17.5
	c-0.3,1.1-0.5,2.2-0.5,3.4H41.1c-0.6,0-1,0.4-1,1s0.4,1,1,1h32.1c0.1,1.3,0.3,2.6,0.6,3.8H25C22.7,73.6,20.9,71.6,20.9,69.3z"/>
<path class="st3" d="M92.5,73.9h-5.1c-0.6,0-1,0.4-1,1s0.4,1,1,1h5.1c0.5,0,1-0.4,1-0.9c0,0,0-0.1,0-0.1
	C93.5,74.3,93.1,73.9,92.5,73.9z"/>
<path class="st3" d="M41.9,32.4c1.4,0,2.6-1.2,2.6-2.6s-1.2-2.6-2.6-2.6c-1.4,0-2.6,1.2-2.6,2.6l0,0c0,1.4,1,2.6,2.4,2.6
	C41.8,32.4,41.8,32.4,41.9,32.4z"/>
<path class="st3" d="M55,27.1c-1.4,0-2.6,1.2-2.6,2.6s1.2,2.6,2.6,2.6s2.6-1.2,2.6-2.6l0,0c0-1.4-1-2.6-2.4-2.6
	C55.1,27.1,55.1,27.1,55,27.1z"/>
</svg>
